<svg version="1.1" id="Layer_1" xmlns="http://www.w3.org/2000/svg" xmlns:xlink="http://www.w3.org/1999/xlink" x="0px" y="0px" viewBox="0 0 1519.2 2269.6" enable-background="new 0 0 1519.2 2269.6" xml:space="preserve"><g id="NEXUS_5_LEFT_1_"><g><path fill-rule="evenodd" clip-rule="evenodd" fill="#231F20" d="M1517.6,83.5c-6-22.5-50.1-65.6-80-71.1c-44.4-8.1-73.5,16.1-109.8,16.4c-98.9,0.9-236.8,16.6-236.8,16.6s-152.8,20.4-240.5,37c-127.1,24-173.9,37.6-200.4,79.8C642.4,174.6,634,200,634,200L54.8,2092.9c0,0-51.7-6.9-52.6,8.9c-3.8,61.4,100.5,93.7,121.4,100c112.9,34,315.3,51.3,315.3,51.3c0.2-0.2,179.1,27.6,358.7,11.3c49.8-4.5,82.3-8.7,106.2-22.8c47.4-28.1,54.6-72.2,54.6-72.2l559.8-2058.8C1518.1,110.6,1520.9,95.9,1517.6,83.5z"/><g><path fill-rule="evenodd" clip-rule="evenodd" fill="#424143" d="M588,172L18.5,2053.1c0,0-3.9,14.1-4.8,29.9c-3.7,61,51.8,72.1,72.4,78.4c111,33.8,310,51,310,51c0.2-0.2,176.1,27.4,352.7,11.2c27.3-2.5,105-12.1,129.8-66.5c7.7-16.9,13.6-31.7,13.6-31.7L1457.2,83.2c0,0,5.8-27.4,5.3-38.9c-2.4-57.3-132.2-42.8-192.3-42.4c-97.3,0.7-232.8,16.5-232.8,16.5S887.2,38.8,800.9,55.2c-125,23.8-171,37.4-197,79.3C596.3,146.7,588,172,588,172z"/></g><g><path fill-rule="evenodd" clip-rule="evenodd" fill="#030303" d="M574.5,174.7L5,2048.2c0,0-3.9,14.1-4.8,29.7c-3.7,60.7,51.8,71.8,72.4,78c111,33.6,310,50.8,310,50.8c0.2-0.2,176.1,27.3,352.7,11.2c27.3-2.5,105-12.1,129.8-66.3c7.7-16.9,13.6-31.6,13.6-31.6L1443.7,86.2c0,0,5.8-27.3,5.3-38.7c-2.4-57.1-132.2-42.6-192.3-42.2c-97.3,0.7-232.8,16.5-232.8,16.5S873.7,42,787.4,58.3c-125,23.7-171,37.2-197,79C582.7,149.5,574.5,174.7,574.5,174.7z"/></g><path fill-rule="evenodd" clip-rule="evenodd" fill="#231F20" d="M583.5,240.1l-519,1704l809,56l511-1831L583.5,240.1z"/><g><g><linearGradient id="SVGID_1_" gradientUnits="userSpaceOnUse" x1="553.0424" y1="2249.0537" x2="697.5211" y2="2249.0537"><stop  offset="4.582902e-04" style="stop-color:#818285"/><stop  offset="0.1401" style="stop-color:#231F20"/><stop  offset="0.2649" style="stop-color:#595A5C"/><stop  offset="0.4061" style="stop-color:#231F20"/><stop  offset="0.5809" style="stop-color:#424143"/><stop  offset="0.8784" style="stop-color:#231F20"/><stop  offset="1" style="stop-color:#424143"/></linearGradient><path fill-rule="evenodd" clip-rule="evenodd" fill="url(#SVGID_1_)" d="M567.3,2246.4c-1-1.8-4.9-3.5-8.7-3.7c-3.9-0.2-6.2,1.1-5.3,3c1,1.8,4.9,3.5,8.8,3.7C565.9,2249.6,568.2,2248.3,567.3,2246.4z M594.7,2247.8c-1-1.8-4.9-3.4-8.6-3.6c-3.8-0.2-6,1.1-5,2.9c1,1.8,4.9,3.5,8.7,3.6C593.5,2250.9,595.7,2249.6,594.7,2247.8z M612.9,2245.6c-3.7-0.2-5.8,1.1-4.7,2.9c1,1.8,4.9,3.4,8.6,3.6c3.7,0.2,5.7-1.1,4.7-2.9C620.3,2247.4,616.5,2245.8,612.9,2245.6z M638.9,2246.9c-3.6-0.2-5.6,1.1-4.5,2.9c1.1,1.8,4.9,3.4,8.5,3.5c3.6,0.2,5.5-1.1,4.4-2.9C646.2,2248.7,642.5,2247.1,638.9,2246.9z M664.3,2248.2c-3.5-0.2-5.4,1.1-4.2,2.8c1.1,1.8,4.9,3.3,8.4,3.5c3.5,0.2,5.3-1.1,4.2-2.9C671.4,2249.9,667.7,2248.4,664.3,2248.2z M697.2,2252.9c-1.2-1.7-4.9-3.2-8.2-3.4c-3.4-0.2-5.2,1.1-4,2.8c1.2,1.7,4.9,3.3,8.3,3.4C696.6,2255.9,698.3,2254.6,697.2,2252.9z M572.6,2252.1c-3.9-0.2-6.2,1.2-5.2,3.1c1,1.9,5,3.5,8.8,3.7c3.9,0.2,6.2-1.2,5.2-3.1C580.3,2253.9,576.4,2252.3,572.6,2252.1z M600.1,2253.4c-3.8-0.2-6,1.2-4.9,3c1,1.9,5,3.5,8.7,3.7c3.8,0.2,5.9-1.2,4.9-3C607.7,2255.2,603.8,2253.6,600.1,2253.4z M626.8,2254.7c-3.6-0.2-5.7,1.2-4.7,3c1.1,1.8,5,3.5,8.6,3.6c3.7,0.2,5.7-1.2,4.6-3C634.3,2256.4,630.4,2254.8,626.8,2254.7z M652.8,2255.9c-3.5-0.2-5.5,1.2-4.4,3c1.1,1.8,5,3.4,8.5,3.6c3.6,0.2,5.5-1.2,4.3-3C660.1,2257.6,656.4,2256.1,652.8,2255.9z M678.1,2257.1c-3.5-0.2-5.3,1.1-4.2,2.9c1.2,1.8,4.9,3.4,8.4,3.5c3.5,0.2,5.3-1.2,4.1-2.9C685.3,2258.8,681.6,2257.2,678.1,2257.1z M566.6,2241.1c3.8,0.2,6.1-1.1,5.1-2.9c-1-1.8-4.8-3.4-8.6-3.6c-3.8-0.2-6.1,1.1-5.2,2.9C558.9,2239.3,562.8,2240.9,566.6,2241.1z M593.9,2242.5c3.7,0.2,5.9-1.1,4.8-2.9c-1-1.8-4.8-3.3-8.5-3.5c-3.7-0.2-5.9,1.1-4.9,2.8C586.3,2240.7,590.1,2242.3,593.9,2242.5z M620.3,2243.9c3.6,0.2,5.6-1.1,4.6-2.8c-1.1-1.7-4.8-3.3-8.4-3.5c-3.6-0.2-5.7,1-4.6,2.8C612.9,2242.1,616.7,2243.7,620.3,2243.9z M646.1,2245.3c3.5,0.2,5.4-1.1,4.3-2.8c-1.1-1.7-4.8-3.3-8.3-3.5c-3.5-0.2-5.5,1-4.4,2.8C638.8,2243.5,642.6,2245.1,646.1,2245.3z M671.2,2246.6c3.4,0.2,5.2-1.1,4.1-2.8c-1.1-1.7-4.8-3.2-8.2-3.4c-3.4-0.2-5.3,1-4.2,2.7C664.1,2244.9,667.8,2246.4,671.2,2246.6z"/></g></g><g><g><path fill-rule="evenodd" clip-rule="evenodd" fill="#010101" d="M567.3,2244.7c-1-1.8-4.9-3.5-8.7-3.7c-3.9-0.2-6.2,1.1-5.3,3c1,1.8,4.9,3.5,8.8,3.7C566,2247.9,568.3,2246.5,567.3,2244.7z M594.8,2246.1c-1-1.8-4.9-3.4-8.6-3.6c-3.8-0.2-6,1.1-5,2.9c1,1.8,4.9,3.5,8.7,3.6C593.6,2249.2,595.8,2247.9,594.8,2246.1z M612.9,2243.9c-3.7-0.2-5.8,1.1-4.7,2.9c1,1.8,4.9,3.4,8.6,3.6c3.7,0.2,5.7-1.1,4.7-2.9C620.4,2245.6,616.6,2244,612.9,2243.9z M639,2245.2c-3.6-0.2-5.6,1.1-4.5,2.9c1.1,1.8,4.9,3.4,8.5,3.5c3.6,0.2,5.5-1.1,4.4-2.9C646.3,2246.9,642.5,2245.4,639,2245.2z M664.3,2246.5c-3.5-0.2-5.4,1.1-4.2,2.8c1.1,1.8,4.9,3.3,8.4,3.5c3.5,0.2,5.3-1.1,4.2-2.9C671.5,2248.2,667.8,2246.7,664.3,2246.5z M697.2,2251.2c-1.2-1.7-4.9-3.2-8.2-3.4c-3.4-0.2-5.2,1.1-4,2.8c1.2,1.7,4.9,3.3,8.3,3.4C696.7,2254.2,698.4,2252.9,697.2,2251.2z M572.6,2250.4c-3.9-0.2-6.2,1.2-5.2,3.1c1,1.9,5,3.5,8.8,3.7c3.9,0.2,6.2-1.2,5.2-3.1C580.4,2252.2,576.5,2250.6,572.6,2250.4z M600.1,2251.7c-3.8-0.2-6,1.2-4.9,3c1,1.9,5,3.5,8.7,3.7c3.8,0.2,5.9-1.2,4.9-3C607.8,2253.5,603.9,2251.9,600.1,2251.7z M626.9,2252.9c-3.6-0.2-5.7,1.2-4.7,3c1.1,1.8,5,3.5,8.6,3.6c3.7,0.2,5.7-1.2,4.6-3C634.4,2254.7,630.5,2253.1,626.9,2252.9z M652.9,2254.2c-3.5-0.2-5.5,1.2-4.4,3c1.1,1.8,5,3.4,8.5,3.6c3.6,0.2,5.5-1.2,4.3-3C660.2,2255.9,656.4,2254.3,652.9,2254.2z M678.2,2255.3c-3.5-0.2-5.3,1.1-4.2,2.9c1.2,1.8,4.9,3.4,8.4,3.5c3.5,0.2,5.3-1.2,4.1-2.9C685.4,2257.1,681.7,2255.5,678.2,2255.3z M566.7,2239.4c3.8,0.2,6.1-1.1,5.1-2.9c-1-1.8-4.8-3.4-8.6-3.6c-3.8-0.2-6.1,1.1-5.2,2.9C559,2237.5,562.9,2239.1,566.7,2239.4z M593.9,2240.8c3.7,0.2,5.9-1.1,4.8-2.9c-1-1.8-4.8-3.3-8.5-3.5c-3.7-0.2-5.9,1.1-4.9,2.8C586.4,2239,590.2,2240.6,593.9,2240.8z M620.4,2242.2c3.6,0.2,5.6-1.1,4.6-2.8c-1.1-1.7-4.8-3.3-8.4-3.5c-3.6-0.2-5.7,1-4.6,2.8C613,2240.4,616.8,2242,620.4,2242.2z M646.2,2243.5c3.5,0.2,5.4-1.1,4.3-2.8c-1.1-1.7-4.8-3.3-8.3-3.5c-3.5-0.2-5.5,1-4.4,2.8C638.9,2241.8,642.7,2243.3,646.2,2243.5z M671.3,2244.8c3.4,0.2,5.2-1.1,4.1-2.8c-1.1-1.7-4.8-3.2-8.2-3.4c-3.4-0.2-5.3,1-4.2,2.7C664.1,2243.1,667.8,2244.7,671.3,2244.8z"/></g></g><g><g><linearGradient id="SVGID_2_" gradientUnits="userSpaceOnUse" x1="129.2186" y1="2202.8223" x2="271.6658" y2="2202.8223"><stop  offset="4.582902e-04" style="stop-color:#818285"/><stop  offset="0.1401" style="stop-color:#231F20"/><stop  offset="0.2649" style="stop-color:#595A5C"/><stop  offset="0.4061" style="stop-color:#231F20"/><stop  offset="0.5809" style="stop-color:#424143"/><stop  offset="0.8784" style="stop-color:#231F20"/><stop  offset="1" style="stop-color:#424143"/></linearGradient><path fill-rule="evenodd" clip-rule="evenodd" fill="url(#SVGID_2_)" d="M143.2,2193.6c-0.8-1.3-4.6-2.9-8.4-3.6c-3.8-0.7-6.3-0.1-5.5,1.2c0.8,1.3,4.6,3,8.4,3.6C141.6,2195.5,144,2194.9,143.2,2193.6z M170.3,2198.2c-0.9-1.3-4.6-2.9-8.3-3.5c-3.7-0.6-6-0.1-5.2,1.2c0.9,1.3,4.6,2.9,8.3,3.6C168.9,2200.1,171.1,2199.5,170.3,2198.2z M196.6,2202.7c-0.9-1.3-4.6-2.9-8.2-3.5c-3.6-0.6-5.8-0.1-4.9,1.3c0.9,1.3,4.6,2.9,8.2,3.5C195.4,2204.6,197.5,2204,196.6,2202.7z M214.1,2203.7c-3.5-0.6-5.6,0-4.6,1.3c1,1.3,4.6,2.9,8.1,3.5c3.5,0.6,5.6,0,4.6-1.3C221.2,2205.8,217.6,2204.3,214.1,2203.7z M239.1,2208c-3.4-0.6-5.4,0-4.4,1.3c1,1.3,4.6,2.8,8,3.4c3.4,0.6,5.4,0,4.3-1.3C246.1,2210.1,242.5,2208.5,239.1,2208z M271.4,2215.5c-1-1.3-4.6-2.8-7.9-3.4c-3.3-0.6-5.2,0-4.2,1.3c1,1.3,4.6,2.8,7.9,3.4C270.6,2217.4,272.4,2216.8,271.4,2215.5z M148,2198c-3.8-0.6-6.2-0.1-5.4,1.3c0.8,1.4,4.7,3,8.5,3.6c3.8,0.6,6.2,0,5.3-1.3C155.6,2200.3,151.8,2198.7,148,2198z M175.2,2202.6c-3.7-0.6-6,0-5.1,1.3c0.9,1.4,4.7,3,8.4,3.6c3.7,0.6,6,0,5-1.3C182.6,2204.8,178.9,2203.2,175.2,2202.6z M201.6,2207.1c-3.6-0.6-5.8,0-4.8,1.3c0.9,1.4,4.7,2.9,8.3,3.5c3.6,0.6,5.7,0,4.8-1.4C208.8,2209.3,205.2,2207.7,201.6,2207.1z M227.3,2211.4c-3.5-0.6-5.6,0-4.6,1.3c1,1.3,4.7,2.9,8.2,3.5c3.5,0.6,5.5,0,4.5-1.4C234.4,2213.6,230.7,2212,227.3,2211.4z M252.2,2215.7c-3.4-0.6-5.4,0-4.3,1.4c1,1.3,4.7,2.9,8.1,3.5c3.4,0.6,5.3,0,4.3-1.4C259.2,2217.8,255.6,2216.2,252.2,2215.7z M143,2190c3.8,0.6,6.1,0.1,5.3-1.2c-0.8-1.3-4.5-2.9-8.2-3.5c-3.7-0.7-6.1-0.1-5.3,1.2C135.5,2187.7,139.2,2189.3,143,2190z M169.8,2194.6c3.7,0.6,5.9,0.1,5-1.2c-0.9-1.3-4.5-2.9-8.1-3.5c-3.6-0.6-5.9-0.1-5.1,1.2C162.5,2192.4,166.2,2194,169.8,2194.6z M195.9,2199.1c3.6,0.6,5.7,0.1,4.7-1.2c-0.9-1.3-4.5-2.8-8-3.4c-3.5-0.6-5.7-0.1-4.8,1.2C188.8,2197,192.4,2198.5,195.9,2199.1z M221.4,2203.5c3.5,0.6,5.5,0,4.5-1.2c-1-1.3-4.5-2.8-8-3.4c-3.4-0.6-5.5-0.1-4.5,1.2C214.3,2201.4,217.9,2202.9,221.4,2203.5z M246.1,2207.8c3.4,0.6,5.3,0,4.3-1.3c-1-1.3-4.5-2.8-7.9-3.4c-3.4-0.6-5.3,0-4.3,1.2C239.2,2205.7,242.7,2207.2,246.1,2207.8z"/></g></g><g><g><path fill-rule="evenodd" clip-rule="evenodd" fill="#010101" d="M144.4,2192.6c-0.8-1.3-4.6-2.9-8.4-3.6c-3.8-0.7-6.3-0.1-5.5,1.2c0.8,1.3,4.6,3,8.4,3.6C142.8,2194.5,145.2,2194,144.4,2192.6z M171.5,2197.3c-0.9-1.3-4.6-2.9-8.3-3.5c-3.7-0.6-6-0.1-5.2,1.2c0.9,1.3,4.6,2.9,8.3,3.6C170.1,2199.2,172.3,2198.6,171.5,2197.3z M197.8,2201.8c-0.9-1.3-4.6-2.9-8.2-3.5c-3.6-0.6-5.8-0.1-4.9,1.3c0.9,1.3,4.6,2.9,8.2,3.5C196.5,2203.7,198.7,2203.1,197.8,2201.8z M215.3,2202.7c-3.5-0.6-5.6,0-4.6,1.3c1,1.3,4.6,2.9,8.1,3.5c3.5,0.6,5.6,0,4.6-1.3C222.4,2204.8,218.8,2203.3,215.3,2202.7z M240.3,2207c-3.4-0.6-5.4,0-4.4,1.3c1,1.3,4.6,2.8,8,3.4c3.4,0.6,5.4,0,4.3-1.3C247.3,2209.1,243.7,2207.6,240.3,2207z M272.6,2214.6c-1-1.3-4.6-2.8-7.9-3.4c-3.3-0.6-5.2,0-4.2,1.3c1,1.3,4.6,2.8,7.9,3.4C271.8,2216.5,273.6,2215.9,272.6,2214.6z M149.2,2197.1c-3.8-0.6-6.2-0.1-5.4,1.3c0.8,1.4,4.7,3,8.5,3.6c3.8,0.6,6.2,0,5.3-1.3C156.8,2199.3,153,2197.7,149.2,2197.1z M176.4,2201.7c-3.7-0.6-6,0-5.1,1.3c0.9,1.4,4.7,3,8.4,3.6c3.7,0.6,6,0,5-1.3C183.8,2203.9,180.1,2202.3,176.4,2201.7z M202.8,2206.1c-3.6-0.6-5.8,0-4.8,1.3c0.9,1.4,4.7,2.9,8.3,3.5c3.6,0.6,5.7,0,4.8-1.4C210,2208.3,206.4,2206.7,202.8,2206.1z M228.4,2210.5c-3.5-0.6-5.6,0-4.6,1.3c1,1.3,4.7,2.9,8.2,3.5c3.5,0.6,5.5,0,4.5-1.4C235.6,2212.6,231.9,2211.1,228.4,2210.5z M253.4,2214.7c-3.4-0.6-5.4,0-4.3,1.4c1,1.3,4.7,2.9,8.1,3.5c3.4,0.6,5.3,0,4.3-1.4C260.4,2216.8,256.8,2215.3,253.4,2214.7z M144.2,2189c3.8,0.6,6.1,0.1,5.3-1.2c-0.8-1.3-4.5-2.9-8.2-3.5c-3.7-0.7-6.1-0.1-5.3,1.2C136.7,2186.8,140.4,2188.4,144.2,2189z M171,2193.7c3.7,0.6,5.9,0.1,5-1.2c-0.9-1.3-4.5-2.9-8.1-3.5c-3.6-0.6-5.9-0.1-5.1,1.2C163.7,2191.4,167.4,2193,171,2193.7z M197.1,2198.2c3.6,0.6,5.7,0.1,4.7-1.2c-0.9-1.3-4.5-2.8-8-3.4c-3.5-0.6-5.7-0.1-4.8,1.2C189.9,2196,193.6,2197.6,197.1,2198.2z M222.6,2202.6c3.5,0.6,5.5,0,4.5-1.2c-1-1.3-4.5-2.8-8-3.4c-3.4-0.6-5.5-0.1-4.5,1.2C215.5,2200.4,219.1,2202,222.6,2202.6z M247.3,2206.9c3.4,0.6,5.3,0,4.3-1.3c-1-1.3-4.5-2.8-7.9-3.4c-3.4-0.6-5.3,0-4.3,1.2C240.4,2204.8,243.9,2206.3,247.3,2206.9z"/></g></g><linearGradient id="SVGID_3_" gradientUnits="userSpaceOnUse" x1="346.7865" y1="2237.8435" x2="453.2925" y2="2237.8435"><stop  offset="4.582902e-04" style="stop-color:#818285"/><stop  offset="0.1401" style="stop-color:#231F20"/><stop  offset="0.2649" style="stop-color:#595A5C"/><stop  offset="0.4061" style="stop-color:#231F20"/><stop  offset="0.5809" style="stop-color:#424143"/><stop  offset="0.8784" style="stop-color:#231F20"/><stop  offset="1" style="stop-color:#424143"/></linearGradient><path fill-rule="evenodd" clip-rule="evenodd" fill="url(#SVGID_3_)" d="M350.4,2225.4l76.1,8c7,0.5,14.5,2.7,16.5,4.7l9.8,10c1.8,1.9-2.3,2.7-9,2l-72.5-8c-4.5-0.5-9.8-2.1-11.9-3.7l-11.2-8.1C346.1,2228.6,345.9,2225.1,350.4,2225.4z"/><path fill-rule="evenodd" clip-rule="evenodd" fill="#030303" d="M351.1,2223.6l76.1,8c7,0.5,14.5,2.7,16.5,4.7l9.8,10c1.8,1.9-2.3,2.7-9,2l-72.5-8c-4.5-0.5-9.8-2.1-11.9-3.7l-11.2-8.1C346.7,2226.8,346.6,2223.3,351.1,2223.6z"/><g><g><g><path fill-rule="evenodd" clip-rule="evenodd" fill="#424143" d="M1008,92.5c-10.3-5.3-25.7,2.5-34.5,17.4c-8.8,14.9-7.6,31.2,2.7,36.5c10.3,5.3,25.7-2.5,34.5-17.4C1019.4,114.1,1018.2,97.7,1008,92.5z"/></g></g><g><g><path fill-rule="evenodd" clip-rule="evenodd" fill="#151314" d="M1009.1,89.9c-10.3-5.3-25.7,2.5-34.5,17.4c-8.8,14.9-7.6,31.2,2.7,36.5c10.3,5.3,25.7-2.5,34.5-17.4C1020.6,111.5,1019.4,95.2,1009.1,89.9z"/></g></g><g><g><path fill-rule="evenodd" clip-rule="evenodd" fill="#424143" d="M1009.9,98.1c-7.2-4.3-18.9,1.9-26,13.8c-7.1,12-7.1,25.1,0.2,29.5s18.9-1.9,26-13.8C1017.2,115.6,1017.1,102.4,1009.9,98.1z M1008.7,107.8c0.5,0.3,0.5,1.2,0,2.1c-0.5,0.8-1.3,1.3-1.8,1c-0.5-0.3-0.5-1.2,0-2.1C1007.4,107.9,1008.2,107.5,1008.7,107.8z M1005.1,103.5c0.5-0.8,1.3-1.3,1.8-1c0.5,0.3,0.5,1.2,0,2.1c-0.5,0.8-1.3,1.3-1.8,1C1004.6,105.3,1004.6,104.4,1005.1,103.5z M1003.3,108.6c0.5,0.3,0.5,1.2,0,2.1c-0.5,0.8-1.3,1.3-1.8,1c-0.5-0.3-0.5-1.2,0-2.1S1002.8,108.3,1003.3,108.6z M999.6,104.4c0.5-0.8,1.3-1.3,1.8-1c0.5,0.3,0.5,1.2,0,2.1c-0.5,0.8-1.3,1.3-1.8,1C999.1,106.1,999.1,105.2,999.6,104.4z M999.7,114.7c0.5,0.3,0.5,1.2,0,2.1c-0.5,0.8-1.3,1.3-1.8,1c-0.5-0.3-0.5-1.2,0-2.1C998.3,114.8,999.2,114.4,999.7,114.7z M996.9,109c0.7-0.4,1.3,0,1.3,0.8c0,0.8-0.6,1.8-1.3,2.1c-0.7,0.4-1.3,0-1.3-0.8C995.6,110.3,996.2,109.4,996.9,109z M996,116.6c0.5,0.3,0.5,1.2,0,2.1c-0.5,0.8-1.3,1.3-1.8,1c-0.5-0.3-0.5-1.2,0-2.1C994.7,116.7,995.5,116.3,996,116.6z M992.3,108.2c0.5-0.8,1.3-1.3,1.8-1c0.5,0.3,0.5,1.2,0,2.1c-0.5,0.8-1.3,1.3-1.8,1C991.8,110,991.8,109.1,992.3,108.2z M990.6,115.4c0.5-0.8,1.3-1.3,1.8-1c0.5,0.3,0.5,1.2,0,2.1c-0.5,0.8-1.3,1.3-1.8,1C990.1,117.1,990.1,116.2,990.6,115.4z M986.9,113.2c0.5-0.8,1.3-1.3,1.8-1c0.5,0.3,0.5,1.2,0,2.1c-0.5,0.8-1.3,1.3-1.8,1C986.4,114.9,986.4,114,986.9,113.2z M985.1,120.3c0.5-0.8,1.3-1.3,1.8-1s0.5,1.2,0,2.1c-0.5,0.8-1.3,1.3-1.8,1C984.6,122.1,984.6,121.2,985.1,120.3z M985.2,130.6c-0.5-0.3-0.5-1.2,0-2.1c0.5-0.8,1.3-1.3,1.8-1c0.5,0.3,0.5,1.2,0,2.1C986.5,130.5,985.7,130.9,985.2,130.6z M988.9,134.8c-0.5,0.8-1.3,1.3-1.8,1c-0.5-0.3-0.5-1.2,0-2.1c0.5-0.8,1.3-1.3,1.8-1S989.4,134,988.9,134.8z M989.2,124.8c-0.7,0.4-1.3,0-1.3-0.8c0-0.8,0.6-1.8,1.3-2.1c0.7-0.4,1.3,0,1.3,0.8C990.5,123.5,989.9,124.5,989.2,124.8z M990.6,129.8c-0.5-0.3-0.5-1.2,0-2.1c0.5-0.8,1.3-1.3,1.8-1c0.5,0.3,0.5,1.2,0,2.1C992,129.6,991.2,130.1,990.6,129.8z M994.3,134c-0.5,0.8-1.3,1.3-1.8,1s-0.5-1.2,0-2.1c0.5-0.8,1.3-1.3,1.8-1C994.8,132.3,994.8,133.2,994.3,134z M994.3,123.7c-0.5-0.3-0.5-1.2,0-2.1c0.5-0.8,1.3-1.3,1.8-1c0.5,0.3,0.5,1.2,0,2.1C995.6,123.6,994.8,124,994.3,123.7z M997,129.4c-0.7,0.4-1.3,0-1.3-0.8c0-0.8,0.6-1.8,1.3-2.1c0.7-0.4,1.3,0,1.3,0.8C998.3,128,997.7,129,997,129.4z M997.9,121.8c-0.5-0.3-0.5-1.2,0-2.1c0.5-0.8,1.3-1.3,1.8-1c0.5,0.3,0.5,1.2,0,2.1C999.2,121.7,998.4,122.1,997.9,121.8z M1001.6,130.2c-0.5,0.8-1.3,1.3-1.8,1c-0.5-0.3-0.5-1.2,0-2.1c0.5-0.8,1.3-1.3,1.8-1C1002.1,128.4,1002.1,129.3,1001.6,130.2z M1003.4,123c-0.5,0.8-1.3,1.3-1.8,1c-0.5-0.3-0.5-1.2,0-2.1c0.5-0.8,1.3-1.3,1.8-1C1003.9,121.3,1003.9,122.2,1003.4,123z M1003.3,115.9c0-0.8,0.6-1.8,1.3-2.1c0.7-0.4,1.3,0,1.3,0.8c0,0.8-0.6,1.8-1.3,2.1C1003.9,117,1003.3,116.7,1003.3,115.9z M1007,125.2c-0.5,0.8-1.3,1.3-1.8,1c-0.5-0.3-0.5-1.2,0-2.1c0.5-0.8,1.3-1.3,1.8-1C1007.5,123.5,1007.5,124.4,1007,125.2z M1008.8,118.1c-0.5,0.8-1.3,1.3-1.8,1c-0.5-0.3-0.5-1.2,0-2.1c0.5-0.8,1.3-1.3,1.8-1C1009.3,116.3,1009.3,117.2,1008.8,118.1z"/></g></g></g><g><g opacity="0.5"><g><g><path fill-rule="evenodd" clip-rule="evenodd" fill="#010101" d="M694.7,122.7c-6.8-3.5-17,1.7-22.7,11.5c-5.8,9.8-5,20.6,1.8,24.1c6.8,3.5,17-1.7,22.7-11.5C702.3,137,701.5,126.2,694.7,122.7z"/></g></g></g><g opacity="0.2"><g><g><radialGradient id="SVGID_4_" cx="682.6312" cy="125.435" r="26.5229" gradientUnits="userSpaceOnUse"><stop  offset="4.582902e-04" style="stop-color:#F2F2F2"/><stop  offset="1" style="stop-color:#231F20;stop-opacity:0"/></radialGradient><path fill-rule="evenodd" clip-rule="evenodd" fill="url(#SVGID_4_)" d="M692.4,126.7c-5.3-2.7-13.2,1.3-17.6,8.9c-4.5,7.6-3.9,16,1.4,18.7s13.2-1.3,17.6-8.9C698.3,137.7,697.6,129.4,692.4,126.7z"/></g></g></g><g><g><g><radialGradient id="SVGID_5_" cx="687.0935" cy="150.4709" r="10.9193" gradientUnits="userSpaceOnUse"><stop  offset="4.582902e-04" style="stop-color:#F2F2F2"/><stop  offset="1" style="stop-color:#231F20;stop-opacity:0"/></radialGradient><path fill-rule="evenodd" clip-rule="evenodd" fill="url(#SVGID_5_)" d="M690.2,130.5c-3.8-2-9.6,0.9-12.8,6.5c-3.3,5.5-2.8,11.6,1,13.6c3.8,2,9.6-0.9,12.8-6.5C694.4,138.5,694,132.4,690.2,130.5z"/></g></g></g></g></g><g><path fill-rule="evenodd" clip-rule="evenodd" fill="#010101" d="M1421.2,387.3l-0.2-0.1c-6.5-1.8-10.3-8.6-8.4-15.2l31.3-114.3c1.8-6.6,8.5-10.5,15-8.7l0.2,0.1c6.5,1.8,10.3,8.6,8.4,15.2l-31.3,114.3C1434.3,385.2,1427.6,389.1,1421.2,387.3z"/><path fill-rule="evenodd" clip-rule="evenodd" fill="#313131" d="M1425.2,386.9l-0.2-0.1c-6.5-1.8-10.3-8.5-8.5-14.9l30.7-112.1c1.8-6.5,8.5-10.3,14.9-8.5l0.2,0.1c6.5,1.8,10.3,8.5,8.5,14.9l-30.7,112.1C1438.4,384.8,1431.7,388.6,1425.2,386.9z"/><path opacity="0.2" fill-rule="evenodd" clip-rule="evenodd" fill="#010101" d="M1347.4,663l-0.2-0.1c-6.5-1.8-10.3-8.5-8.5-14.9l62.9-229.5c1.8-6.5,8.5-10.3,14.9-8.5l0.2,0.1c6.5,1.8,10.3,8.5,8.5,14.9l-62.9,229.5C1360.6,660.9,1353.9,664.7,1347.4,663z"/><linearGradient id="SVGID_6_" gradientUnits="userSpaceOnUse" x1="1350.4436" y1="656.9581" x2="1419.9436" y2="407.9582"><stop  offset="4.582902e-04" style="stop-color:#231F20"/><stop  offset="0.3105" style="stop-color:#231F20"/><stop  offset="1" style="stop-color:#231F20"/></linearGradient><path fill-rule="evenodd" clip-rule="evenodd" fill="url(#SVGID_6_)" d="M1349.5,663l-0.2-0.1c-6.5-1.8-10.3-8.5-8.5-14.9l62.9-229.5c1.8-6.5,8.5-10.3,14.9-8.5l0.2,0.1c6.5,1.8,10.3,8.5,8.5,14.9l-62.9,229.5C1362.7,660.9,1356,664.7,1349.5,663z"/><circle fill-rule="evenodd" clip-rule="evenodd" fill="#313131" cx="1346.5" cy="673.5" r="4.5"/><ellipse transform="matrix(0.9644 0.2643 -0.2643 0.9644 225.8532 -331.7797)" fill-rule="evenodd" clip-rule="evenodd" fill="#010101" cx="1345.8" cy="673.3" rx="3.7" ry="4.5"/></g></g></svg>