<?xml version="1.0" encoding="utf-8"?>
<!-- Generator: Adobe Illustrator 21.1.0, SVG Export Plug-In . SVG Version: 6.00 Build 0)  -->
<svg version="1.1" id="Layer_1" xmlns="http://www.w3.org/2000/svg" xmlns:xlink="http://www.w3.org/1999/xlink" x="0px" y="0px"
	 viewBox="0 0 552 477.9" style="enable-background:new 0 0 552 477.9;" xml:space="preserve">
<style type="text/css">
	.st0{fill:#FFFFFF;}
	.st1{font-family:'FiraSans-Bold';}
	.st2{font-size:24px;}
	.st3{font-family:'FiraSans-Regular';}
	.st4{font-size:18px;}
	.st5{fill:none;stroke:#000000;stroke-linecap:round;stroke-linejoin:round;}
	.st6{fill:none;}
	.st7{fill:none;stroke:#000000;}
	.st8{font-size:10px;}
	.st9{fill:none;stroke:#000000;stroke-linecap:round;stroke-linejoin:round;stroke-opacity:0.5;stroke-dasharray:1,3;}
	.st10{fill:#0588CB;}
	.st11{fill:#FFFFFF;stroke:#0588CB;}
</style>
<g>
	<path id="a_1_" class="st0" d="M20.2,436.1V422H-8.1v28.2h28.3C20.2,450.2,20.2,436.1,20.2,436.1z"/>
</g>
<g id="Layer_1_1_">
	<text transform="matrix(1 0 0 1 12 436.1412)" class="st1 st2">Blocked domains in Iran</text>
	<text transform="matrix(1 0 0 1 12 460.0111)" class="st3 st4">From 2014 to 2017</text>
	<g>
		<line shape-rendering="auto" vector-effect="non-scaling-stroke" class="st5" x1="12" y1="374.1" x2="362" y2="374.1"/>
		<g>
			<line shape-rendering="auto" vector-effect="non-scaling-stroke" class="st6" x1="61.9" y1="374.1" x2="61.9" y2="-25.9"/>
			<line shape-rendering="auto" vector-effect="non-scaling-stroke" class="st7" x1="61.9" y1="374.1" x2="61.9" y2="379.1"/>
			<text transform="matrix(0.7071 -0.7071 0.7071 0.7071 60.5181 402.6018)" class="st3 st8">20</text>
		</g>
		<g>
			<line shape-rendering="auto" vector-effect="non-scaling-stroke" class="st6" x1="111.8" y1="374.1" x2="111.8" y2="-25.9"/>
			<line shape-rendering="auto" vector-effect="non-scaling-stroke" class="st7" x1="111.8" y1="374.1" x2="111.8" y2="379.1"/>
			<text transform="matrix(0.7071 -0.7071 0.7071 0.7071 110.1748 402.8635)" class="st3 st8">40</text>
		</g>
		<g>
			<line shape-rendering="auto" vector-effect="non-scaling-stroke" class="st6" x1="161.8" y1="374.1" x2="161.8" y2="-25.9"/>
			<line shape-rendering="auto" vector-effect="non-scaling-stroke" class="st7" x1="161.8" y1="374.1" x2="161.8" y2="379.1"/>
			<text transform="matrix(0.7071 -0.7071 0.7071 0.7071 160.086 402.8704)" class="st3 st8">60</text>
		</g>
		<g>
			<line shape-rendering="auto" vector-effect="non-scaling-stroke" class="st6" x1="211.7" y1="374.1" x2="211.7" y2="-25.9"/>
			<line shape-rendering="auto" vector-effect="non-scaling-stroke" class="st7" x1="211.7" y1="374.1" x2="211.7" y2="379.1"/>
			<text transform="matrix(0.7071 -0.7071 0.7071 0.7071 209.877 402.9978)" class="st3 st8">80</text>
		</g>
		<g>
			<line shape-rendering="auto" vector-effect="non-scaling-stroke" class="st6" x1="261.6" y1="374.1" x2="261.6" y2="-25.9"/>
			<line shape-rendering="auto" vector-effect="non-scaling-stroke" class="st7" x1="261.6" y1="374.1" x2="261.6" y2="379.1"/>
			<text transform="matrix(0.7071 -0.7071 0.7071 0.7071 256.6841 406.1086)" class="st3 st8">100</text>
		</g>
		<g>
			<line shape-rendering="auto" vector-effect="non-scaling-stroke" class="st6" x1="311.5" y1="374.1" x2="311.5" y2="-25.9"/>
			<line shape-rendering="auto" vector-effect="non-scaling-stroke" class="st7" x1="311.5" y1="374.1" x2="311.5" y2="379.1"/>
			<text transform="matrix(0.7071 -0.7071 0.7071 0.7071 307.0479 405.6628)" class="st3 st8">120</text>
		</g>
		<g>
			<line shape-rendering="auto" vector-effect="non-scaling-stroke" class="st6" x1="361.4" y1="374.1" x2="361.4" y2="-25.9"/>
			<line shape-rendering="auto" vector-effect="non-scaling-stroke" class="st7" x1="361.4" y1="374.1" x2="361.4" y2="379.1"/>
			<text transform="matrix(0.7071 -0.7071 0.7071 0.7071 356.7046 405.925)" class="st3 st8">140</text>
		</g>
	</g>
	<g>
		<line shape-rendering="auto" vector-effect="non-scaling-stroke" class="st6" x1="362" y1="-25.9" x2="362" y2="374.1"/>
		<g>
			<line shape-rendering="auto" vector-effect="non-scaling-stroke" class="st9" x1="362" y1="361.5" x2="12" y2="361.5"/>
			<line shape-rendering="auto" vector-effect="non-scaling-stroke" class="st6" x1="362" y1="361.5" x2="367" y2="361.5"/>
			<text transform="matrix(1 0 0 1 377 365.0964)" class="st3 st8">Economics</text>
		</g>
		<g>
			<line shape-rendering="auto" vector-effect="non-scaling-stroke" class="st9" x1="362" y1="349" x2="12" y2="349"/>
			<line shape-rendering="auto" vector-effect="non-scaling-stroke" class="st6" x1="362" y1="349" x2="367" y2="349"/>
			<text transform="matrix(1 0 0 1 377 352.5329)" class="st3 st8">Gaming</text>
		</g>
		<g>
			<line shape-rendering="auto" vector-effect="non-scaling-stroke" class="st9" x1="362" y1="336.4" x2="12" y2="336.4"/>
			<line shape-rendering="auto" vector-effect="non-scaling-stroke" class="st6" x1="362" y1="336.4" x2="367" y2="336.4"/>
			<text transform="matrix(1 0 0 1 377 339.9695)" class="st3 st8">Hate speech</text>
		</g>
		<g>
			<line shape-rendering="auto" vector-effect="non-scaling-stroke" class="st9" x1="362" y1="323.8" x2="12" y2="323.8"/>
			<line shape-rendering="auto" vector-effect="non-scaling-stroke" class="st6" x1="362" y1="323.8" x2="367" y2="323.8"/>
			<text transform="matrix(1 0 0 1 377 327.4057)" class="st3 st8">Environment</text>
		</g>
		<g>
			<line shape-rendering="auto" vector-effect="non-scaling-stroke" class="st9" x1="362" y1="311.3" x2="12" y2="311.3"/>
			<line shape-rendering="auto" vector-effect="non-scaling-stroke" class="st6" x1="362" y1="311.3" x2="367" y2="311.3"/>
			<text transform="matrix(1 0 0 1 377 314.8423)" class="st3 st8">E-commerce</text>
		</g>
		<g>
			<line shape-rendering="auto" vector-effect="non-scaling-stroke" class="st9" x1="362" y1="298.7" x2="12" y2="298.7"/>
			<line shape-rendering="auto" vector-effect="non-scaling-stroke" class="st6" x1="362" y1="298.7" x2="367" y2="298.7"/>
			<text transform="matrix(1 0 0 1 377 302.2785)" class="st3 st8">Militants and terrorists</text>
		</g>
		<g>
			<line shape-rendering="auto" vector-effect="non-scaling-stroke" class="st9" x1="362" y1="286.2" x2="12" y2="286.2"/>
			<line shape-rendering="auto" vector-effect="non-scaling-stroke" class="st6" x1="362" y1="286.2" x2="367" y2="286.2"/>
			<text transform="matrix(1 0 0 1 377 289.7151)" class="st3 st8">Public health</text>
		</g>
		<g>
			<line shape-rendering="auto" vector-effect="non-scaling-stroke" class="st9" x1="362" y1="273.6" x2="12" y2="273.6"/>
			<line shape-rendering="auto" vector-effect="non-scaling-stroke" class="st6" x1="362" y1="273.6" x2="367" y2="273.6"/>
			<text transform="matrix(1 0 0 1 377 277.1514)" class="st3 st8">Search engines</text>
		</g>
		<g>
			<line shape-rendering="auto" vector-effect="non-scaling-stroke" class="st9" x1="362" y1="261" x2="12" y2="261"/>
			<line shape-rendering="auto" vector-effect="non-scaling-stroke" class="st6" x1="362" y1="261" x2="367" y2="261"/>
			<text transform="matrix(1 0 0 1 377 264.5879)" class="st3 st8">Communication tools</text>
		</g>
		<g>
			<line shape-rendering="auto" vector-effect="non-scaling-stroke" class="st9" x1="362" y1="248.5" x2="12" y2="248.5"/>
			<line shape-rendering="auto" vector-effect="non-scaling-stroke" class="st6" x1="362" y1="248.5" x2="367" y2="248.5"/>
			<text transform="matrix(1 0 0 1 377 252.0242)" class="st3 st8">Hacking tools</text>
		</g>
		<g>
			<line shape-rendering="auto" vector-effect="non-scaling-stroke" class="st9" x1="362" y1="235.9" x2="12" y2="235.9"/>
			<line shape-rendering="auto" vector-effect="non-scaling-stroke" class="st6" x1="362" y1="235.9" x2="367" y2="235.9"/>
			<text transform="matrix(1 0 0 1 377 239.4607)" class="st3 st8">Government</text>
		</g>
		<g>
			<line shape-rendering="auto" vector-effect="non-scaling-stroke" class="st9" x1="362" y1="223.3" x2="12" y2="223.3"/>
			<line shape-rendering="auto" vector-effect="non-scaling-stroke" class="st6" x1="362" y1="223.3" x2="367" y2="223.3"/>
			<text transform="matrix(1 0 0 1 377 226.8972)" class="st3 st8">File-sharing</text>
		</g>
		<g>
			<line shape-rendering="auto" vector-effect="non-scaling-stroke" class="st9" x1="362" y1="210.8" x2="12" y2="210.8"/>
			<line shape-rendering="auto" vector-effect="non-scaling-stroke" class="st6" x1="362" y1="210.8" x2="367" y2="210.8"/>
			<text transform="matrix(1 0 0 1 377 214.3335)" class="st3 st8">Hosting and blogging platforms</text>
		</g>
		<g>
			<line shape-rendering="auto" vector-effect="non-scaling-stroke" class="st9" x1="362" y1="198.2" x2="12" y2="198.2"/>
			<line shape-rendering="auto" vector-effect="non-scaling-stroke" class="st6" x1="362" y1="198.2" x2="367" y2="198.2"/>
			<text transform="matrix(1 0 0 1 377 201.77)" class="st3 st8">Sex education</text>
		</g>
		<g>
			<line shape-rendering="auto" vector-effect="non-scaling-stroke" class="st9" x1="362" y1="185.6" x2="12" y2="185.6"/>
			<line shape-rendering="auto" vector-effect="non-scaling-stroke" class="st6" x1="362" y1="185.6" x2="367" y2="185.6"/>
			<text transform="matrix(1 0 0 1 377 189.2063)" class="st3 st8">Online dating</text>
		</g>
		<g>
			<line shape-rendering="auto" vector-effect="non-scaling-stroke" class="st9" x1="362" y1="173.1" x2="12" y2="173.1"/>
			<line shape-rendering="auto" vector-effect="non-scaling-stroke" class="st6" x1="362" y1="173.1" x2="367" y2="173.1"/>
			<text transform="matrix(1 0 0 1 377 176.6428)" class="st3 st8">Alcohol and drugs</text>
		</g>
		<g>
			<line shape-rendering="auto" vector-effect="non-scaling-stroke" class="st9" x1="362" y1="160.5" x2="12" y2="160.5"/>
			<line shape-rendering="auto" vector-effect="non-scaling-stroke" class="st6" x1="362" y1="160.5" x2="367" y2="160.5"/>
			<text transform="matrix(1 0 0 1 377 164.0793)" class="st3 st8">Provocative attire</text>
		</g>
		<g>
			<line shape-rendering="auto" vector-effect="non-scaling-stroke" class="st9" x1="362" y1="148" x2="12" y2="148"/>
			<line shape-rendering="auto" vector-effect="non-scaling-stroke" class="st6" x1="362" y1="148" x2="367" y2="148"/>
			<text transform="matrix(1 0 0 1 377 151.5156)" class="st3 st8">Social networking</text>
		</g>
		<g>
			<line shape-rendering="auto" vector-effect="non-scaling-stroke" class="st9" x1="362" y1="135.4" x2="12" y2="135.4"/>
			<line shape-rendering="auto" vector-effect="non-scaling-stroke" class="st6" x1="362" y1="135.4" x2="367" y2="135.4"/>
			<text transform="matrix(1 0 0 1 377 138.9521)" class="st3 st8">Gambling</text>
		</g>
		<g>
			<line shape-rendering="auto" vector-effect="non-scaling-stroke" class="st9" x1="362" y1="122.8" x2="12" y2="122.8"/>
			<line shape-rendering="auto" vector-effect="non-scaling-stroke" class="st6" x1="362" y1="122.8" x2="367" y2="122.8"/>
			<text transform="matrix(1 0 0 1 377 126.3884)" class="st3 st8">Media sharing</text>
		</g>
		<g>
			<line shape-rendering="auto" vector-effect="non-scaling-stroke" class="st9" x1="362" y1="110.3" x2="12" y2="110.3"/>
			<line shape-rendering="auto" vector-effect="non-scaling-stroke" class="st6" x1="362" y1="110.3" x2="367" y2="110.3"/>
			<text transform="matrix(1 0 0 1 377 113.8249)" class="st3 st8">Religion</text>
		</g>
		<g>
			<line shape-rendering="auto" vector-effect="non-scaling-stroke" class="st9" x1="362" y1="97.7" x2="12" y2="97.7"/>
			<line shape-rendering="auto" vector-effect="non-scaling-stroke" class="st6" x1="362" y1="97.7" x2="367" y2="97.7"/>
			<text transform="matrix(1 0 0 1 377 101.2615)" class="st3 st8">Anonymity and circumvention tools</text>
		</g>
		<g>
			<line shape-rendering="auto" vector-effect="non-scaling-stroke" class="st9" x1="362" y1="85.1" x2="12" y2="85.1"/>
			<line shape-rendering="auto" vector-effect="non-scaling-stroke" class="st6" x1="362" y1="85.1" x2="367" y2="85.1"/>
			<text transform="matrix(1 0 0 1 377 88.6977)" class="st3 st8">LGBT</text>
		</g>
		<g>
			<line shape-rendering="auto" vector-effect="non-scaling-stroke" class="st9" x1="362" y1="72.6" x2="12" y2="72.6"/>
			<line shape-rendering="auto" vector-effect="non-scaling-stroke" class="st6" x1="362" y1="72.6" x2="367" y2="72.6"/>
			<text transform="matrix(1 0 0 1 377 76.1342)" class="st3 st8">Pornography</text>
		</g>
		<g>
			<line shape-rendering="auto" vector-effect="non-scaling-stroke" class="st9" x1="362" y1="60" x2="12" y2="60"/>
			<line shape-rendering="auto" vector-effect="non-scaling-stroke" class="st6" x1="362" y1="60" x2="367" y2="60"/>
			<text transform="matrix(1 0 0 1 377 63.5705)" class="st3 st8">Political criticism</text>
		</g>
		<g>
			<line shape-rendering="auto" vector-effect="non-scaling-stroke" class="st9" x1="362" y1="47.4" x2="12" y2="47.4"/>
			<line shape-rendering="auto" vector-effect="non-scaling-stroke" class="st6" x1="362" y1="47.4" x2="367" y2="47.4"/>
			<text transform="matrix(1 0 0 1 377 51.007)" class="st3 st8">Culture</text>
		</g>
		<g>
			<line shape-rendering="auto" vector-effect="non-scaling-stroke" class="st9" x1="362" y1="34.9" x2="12" y2="34.9"/>
			<line shape-rendering="auto" vector-effect="non-scaling-stroke" class="st6" x1="362" y1="34.9" x2="367" y2="34.9"/>
			<text transform="matrix(1 0 0 1 377 38.4434)" class="st3 st8">Human rights issues</text>
		</g>
		<g>
			<line shape-rendering="auto" vector-effect="non-scaling-stroke" class="st9" x1="362" y1="22.3" x2="12" y2="22.3"/>
			<line shape-rendering="auto" vector-effect="non-scaling-stroke" class="st6" x1="362" y1="22.3" x2="367" y2="22.3"/>
			<text transform="matrix(1 0 0 1 377 25.8799)" class="st3 st8">News media</text>
		</g>
	</g>
	<g>
		<path shape-rendering="auto" class="st10" d="M12,356.1v10h10v-10H12z"/>
		<path shape-rendering="auto" class="st10" d="M12,344.1v10h10v-10H12z"/>
		<path shape-rendering="auto" class="st10" d="M12,331.1v10h12v-10H12z"/>
		<path shape-rendering="auto" class="st10" d="M12,319.1v10h15v-10H12z"/>
		<path shape-rendering="auto" class="st10" d="M12,306.1v10h17v-10H12z"/>
		<path shape-rendering="auto" class="st10" d="M12,294.1v10h20v-10H12z"/>
		<path shape-rendering="auto" class="st10" d="M12,281.1v10h20v-10H12z"/>
		<path shape-rendering="auto" class="st10" d="M12,268.1v10h20v-10H12z"/>
		<path shape-rendering="auto" class="st10" d="M12,256.1v10h25v-10H12z"/>
		<path shape-rendering="auto" class="st10" d="M12,243.1v10h25v-10H12z"/>
		<path shape-rendering="auto" class="st10" d="M12,231.1v10h30v-10H12z"/>
		<path shape-rendering="auto" class="st10" d="M12,218.1v10h37v-10H12z"/>
		<path shape-rendering="auto" class="st10" d="M12,206.1v10h40v-10H12z"/>
		<path shape-rendering="auto" class="st10" d="M12,193.1v10h42v-10H12z"/>
		<path shape-rendering="auto" class="st10" d="M12,181.1v10h45v-10H12z"/>
		<path shape-rendering="auto" class="st10" d="M12,168.1v10h52v-10H12z"/>
		<path shape-rendering="auto" class="st10" d="M12,155.1v10h60v-10H12z"/>
		<path shape-rendering="auto" class="st10" d="M12,143.1v10h65v-10H12z"/>
		<path shape-rendering="auto" class="st10" d="M12,130.1v10h75v-10H12z"/>
		<path shape-rendering="auto" class="st10" d="M12,118.1v10h87v-10C99,118.1,12,118.1,12,118.1z"/>
		<path shape-rendering="auto" class="st10" d="M12,105.1v10h92v-10H12z"/>
		<path shape-rendering="auto" class="st10" d="M12,93.1v10h110v-10H12z"/>
		<path shape-rendering="auto" class="st10" d="M12,80.1v10h115v-10H12z"/>
		<path shape-rendering="auto" class="st10" d="M12,67.1v10h155v-10H12z"/>
		<path shape-rendering="auto" class="st10" d="M12,55.1v10h205v-10H12z"/>
		<path shape-rendering="auto" class="st10" d="M12,42.1v10h252v-10H12z"/>
		<path shape-rendering="auto" class="st10" d="M12,30.1v10h272v-10C284,30.1,12,30.1,12,30.1z"/>
		<path shape-rendering="auto" class="st10" d="M12,17.1v10h302v-10H12z"/>
	</g>
</g>
<g id="Layer_3">
	<g>
		<path shape-rendering="auto" class="st11" d="M324,18v4v4v2.4l0,0l20-0.2v-12l-20,0.2l0,0V18z"/>
		<text transform="matrix(1 0 0 1 327.3258 25.7397)" class="st3 st8">121</text>
	</g>
	<g>
		<path shape-rendering="auto" class="st11" d="M294,30.8v4v4v2.4l0,0l20-0.2V29l-20,0.2l0,0V30.8z"/>
		<text transform="matrix(1 0 0 1 297.3503 38.52)" class="st3 st8">109</text>
	</g>
	<g>
		<path shape-rendering="auto" class="st11" d="M274,43.2v4v4v2.4l0,0l20-0.2v-12l-20,0.2l0,0V43.2z"/>
		<text transform="matrix(1 0 0 1 277.3229 50.9435)" class="st3 st8">101</text>
	</g>
	<g>
		<path shape-rendering="auto" class="st11" d="M226.8,55.5v4v4v2.4l0,0l20-0.2v-12l-20,0.2l0,0V55.5z"/>
		<text transform="matrix(1 0 0 1 231.1554 63.2252)" class="st3 st8">82</text>
	</g>
	<g>
		<path shape-rendering="auto" class="st11" d="M176.9,68.3v4v4v2.4l0,0l20-0.2v-12l-20,0.2l0,0V68.3z"/>
		<text transform="matrix(1 0 0 1 181.1962 76.0069)" class="st3 st8">62</text>
	</g>
	<g>
		<path shape-rendering="auto" class="st11" d="M136.9,81.1v4v4v2.4l0,0l20-0.2v-12l-20,0.2l0,0V81.1z"/>
		<text transform="matrix(1 0 0 1 141.2289 88.7887)" class="st3 st8">46</text>
	</g>
	<g>
		<path shape-rendering="auto" class="st11" d="M131.9,93.8v4v4v2.4l0,0l20-0.2V92l-20,0.2l0,0V93.8z"/>
		<text transform="matrix(1 0 0 1 136.233 101.5199)" class="st3 st8">44</text>
	</g>
	<g>
		<path shape-rendering="auto" class="st11" d="M114.2,106.2v4v4v2.4l0,0l20-0.2v-12l-20,0.2l0,0V106.2z"/>
		<text transform="matrix(1 0 0 1 118.4973 113.8523)" class="st3 st8">37</text>
	</g>
	<g>
		<path shape-rendering="auto" class="st11" d="M109.7,119.9v4v4v2.4l0,0l20-0.2v-12l-20,0.2l0,0V119.9z"/>
		<text transform="matrix(1 0 0 1 113.9818 127.6213)" class="st3 st8">35</text>
	</g>
	<g>
		<path shape-rendering="auto" class="st11" d="M96.9,131.2v4v4v2.4l0,0l20-0.2v-12l-20,0.2l0,0V131.2z"/>
		<text transform="matrix(1 0 0 1 101.2167 138.9159)" class="st3 st8">30</text>
	</g>
	<g>
		<path shape-rendering="auto" class="st11" d="M86.9,143.5v4v4v2.4l0,0l20-0.2v-12l-20,0.2l0,0V143.5z"/>
		<text transform="matrix(1 0 0 1 91.2138 151.1976)" class="st3 st8">26</text>
	</g>
	<g>
		<path shape-rendering="auto" class="st11" d="M81.9,156.3v4v4v2.4l0,0l20-0.2v-12l-20,0.2l0,0V156.3z"/>
		<text transform="matrix(1 0 0 1 86.2739 163.9795)" class="st3 st8">24</text>
	</g>
	<g>
		<path shape-rendering="auto" class="st11" d="M74.3,169.8v4v4v2.4l0,0l20-0.2v-12l-20,0.2l0,0V169.8z"/>
		<text transform="matrix(1 0 0 1 78.5967 177.5199)" class="st3 st8">21</text>
	</g>
	<g>
		<path shape-rendering="auto" class="st11" d="M67,182.3v4v4v2.4l0,0l20-0.2v-12l-20,0.2l0,0V182.3z"/>
		<text transform="matrix(1 0 0 1 71.2861 190.0431)" class="st3 st8">18</text>
	</g>
	<g>
		<path shape-rendering="auto" class="st11" d="M64,194.8v4v4v2.4l0,0l20-0.2v-12l-20,0.2l0,0V194.8z"/>
		<text transform="matrix(1 0 0 1 68.3229 202.5199)" class="st3 st8">17</text>
	</g>
	<g>
		<path shape-rendering="auto" class="st11" d="M62,206.8v4v4v2.4l0,0l20-0.2v-12l-20,0.2l0,0V206.8z"/>
		<text transform="matrix(1 0 0 1 66.3294 214.5199)" class="st3 st8">16</text>
	</g>
	<g>
		<path shape-rendering="auto" class="st11" d="M60,219.2v4v4v2.4l0,0l20-0.2v-12l-20,0.2l0,0V219.2z"/>
		<text transform="matrix(1 0 0 1 64.3685 226.8884)" class="st3 st8">15</text>
	</g>
	<g>
		<path shape-rendering="auto" class="st11" d="M53,232.1v4v4v2.4l0,0l20-0.2v-12l-20,0.2l0,0V232.1z"/>
		<text transform="matrix(1 0 0 1 57.3265 239.8182)" class="st3 st8">12</text>
	</g>
	<g>
		<path shape-rendering="auto" class="st11" d="M47,244.3v4v4v2.4l0,0l20-0.2v-12l-20,0.2l0,0V244.3z"/>
		<text transform="matrix(1 0 0 1 51.2984 251.952)" class="st3 st8">10</text>
	</g>
	<g>
		<path shape-rendering="auto" class="st11" d="M47,257.8v4v4v2.4l0,0l20-0.2v-12l-20,0.2l0,0V257.8z"/>
		<text transform="matrix(1 0 0 1 51.3229 265.5199)" class="st3 st8">10</text>
	</g>
	<g>
		<path shape-rendering="auto" class="st11" d="M42,270.8v4v4v2.4l0,0l20-0.2v-12l-20,0.2l0,0V270.8z"/>
		<text transform="matrix(1 0 0 1 48.3271 278.5198)" class="st3 st8">8</text>
	</g>
	<g>
		<path shape-rendering="auto" class="st11" d="M42,295.8v4v4v2.4l0,0l20-0.2v-12l-20,0.2l0,0V295.8z"/>
		<text transform="matrix(1 0 0 1 48.3271 303.5199)" class="st3 st8">8</text>
	</g>
	<g>
		<path shape-rendering="auto" class="st11" d="M42,283.5v4v4v2.4l0,0l20-0.2v-12l-20,0.2l0,0V283.5z"/>
		<text transform="matrix(1 0 0 1 48.3236 291.2211)" class="st3 st8">8</text>
	</g>
	<g>
		<path shape-rendering="auto" class="st11" d="M39.3,308.2v4v4v2.4l0,0l20-0.2v-12l-20,0.2l0,0V308.2z"/>
		<text transform="matrix(1 0 0 1 45.6212 315.8609)" class="st3 st8">7</text>
	</g>
	<g>
		<path shape-rendering="auto" class="st11" d="M37.6,320.8v4v4v2.4l0,0l20-0.2v-12l-20,0.2l0,0V320.8z"/>
		<text transform="matrix(1 0 0 1 43.9441 328.5199)" class="st3 st8">6</text>
	</g>
	<g>
		<path shape-rendering="auto" class="st11" d="M35.6,332.2v4v4v2.4l0,0l20-0.2v-12l-20,0.2l0,0V332.2z"/>
		<text transform="matrix(1 0 0 1 41.9441 339.9245)" class="st3 st8">5</text>
	</g>
	<g>
		<path shape-rendering="auto" class="st11" d="M31.9,344.8v4v4v2.4l0,0l20-0.2v-12l-20,0.2l0,0C31.9,343.2,31.9,344.8,31.9,344.8z"
			/>
		<text transform="matrix(1 0 0 1 38.267 352.5199)" class="st3 st8">4</text>
	</g>
	<g>
		<path shape-rendering="auto" class="st11" d="M31.9,357.3v4v4v2.4l0,0l20-0.2v-12l-20,0.2l0,0C31.9,355.7,31.9,357.3,31.9,357.3z"
			/>
		<text transform="matrix(1 0 0 1 38.267 364.9941)" class="st3 st8">4</text>
	</g>
</g>
</svg>
