<svg version="1.1" id="Layer_1" xmlns="http://www.w3.org/2000/svg" xmlns:xlink="http://www.w3.org/1999/xlink" x="0px" y="0px" viewBox="0 0 1519.2 2269.6" enable-background="new 0 0 1519.2 2269.6" xml:space="preserve"><g id="NEXUS_5_RIGHT_1_"><g><path fill-rule="evenodd" clip-rule="evenodd" fill="#231F20" d="M1.6,83.5c6-22.5,50.1-65.6,80-71.1c44.4-8.1,73.5,16.1,109.8,16.4c98.9,0.9,236.8,16.6,236.8,16.6s152.8,20.4,240.5,37c127.1,24,173.9,37.6,200.4,79.8c7.8,12.4,16.1,37.8,16.1,37.8l579.3,1892.9c0,0,51.7-6.9,52.6,8.9c3.8,61.4-100.5,93.7-121.4,100c-112.9,34-315.3,51.3-315.3,51.3c-0.2-0.2-179.1,27.6-358.7,11.3c-49.8-4.5-82.3-8.7-106.2-22.8c-47.4-28.1-54.6-72.2-54.6-72.2L1.1,110.6C1.1,110.6-1.7,95.9,1.6,83.5z"/><g><path fill-rule="evenodd" clip-rule="evenodd" fill="#424143" d="M915.3,134.5c-26.1-41.9-72-55.5-197-79.3c-86.3-16.4-236.5-36.7-236.5-36.7S346.3,2.6,249.1,1.9C188.9,1.5,59.1-13,56.8,44.3C56.3,55.8,62,83.2,62,83.2L627,2125.3c0,0,5.9,14.8,13.6,31.7c24.8,54.4,102.5,64,129.8,66.5c176.6,16.2,352.5-11.4,352.7-11.2c0,0,199-17.3,310-51c20.6-6.3,76.2-17.4,72.4-78.4c-1-15.7-4.8-29.9-4.8-29.9L931.2,172C931.2,172,923,146.7,915.3,134.5z"/></g><g><path fill-rule="evenodd" clip-rule="evenodd" fill="#030303" d="M928.8,137.3c-26.1-41.7-72-55.2-197-79C645.6,42,495.3,21.8,495.3,21.8S359.8,6,262.6,5.3C202.4,4.9,72.6-9.5,70.3,47.5c-0.5,11.4,5.3,38.7,5.3,38.7l564.9,2033.9c0,0,5.9,14.7,13.6,31.6c24.8,54.2,102.5,63.8,129.8,66.3c176.6,16.2,352.5-11.4,352.7-11.2c0,0,199-17.2,310-50.8c20.6-6.2,76.2-17.3,72.4-78c-1-15.7-4.8-29.7-4.8-29.7L944.7,174.7C944.7,174.7,936.5,149.5,928.8,137.3z"/></g><path fill-rule="evenodd" clip-rule="evenodd" fill="#231F20" d="M134.7,169.1l511,1831l809-56l-519-1704L134.7,169.1z"/><g><g><linearGradient id="SVGID_1_" gradientUnits="userSpaceOnUse" x1="2623.2253" y1="2249.0537" x2="2767.7039" y2="2249.0537" gradientTransform="matrix(-1 0 0 1 3589.3906 0)"><stop  offset="4.582902e-04" style="stop-color:#818285"/><stop  offset="0.1401" style="stop-color:#231F20"/><stop  offset="0.2649" style="stop-color:#595A5C"/><stop  offset="0.4061" style="stop-color:#231F20"/><stop  offset="0.5809" style="stop-color:#424143"/><stop  offset="0.8784" style="stop-color:#231F20"/><stop  offset="1" style="stop-color:#424143"/></linearGradient><path fill-rule="evenodd" clip-rule="evenodd" fill="url(#SVGID_1_)" d="M960.7,2242.8c-3.8,0.2-7.7,1.8-8.7,3.7c-1,1.8,1.4,3.2,5.2,3c3.9-0.2,7.8-1.8,8.8-3.7C966.9,2243.9,964.5,2242.6,960.7,2242.8z M933.1,2244.2c-3.7,0.2-7.6,1.8-8.6,3.6c-1,1.8,1.2,3.1,4.9,3c3.8-0.2,7.7-1.8,8.7-3.6C939.1,2245.3,936.9,2244,933.1,2244.2z M911.1,2248.5c1-1.8-1.1-3.1-4.7-2.9c-3.6,0.2-7.4,1.8-8.5,3.6c-1.1,1.8,1,3.1,4.7,2.9C906.2,2251.9,910,2250.3,911.1,2248.5z M884.8,2249.8c1.1-1.8-0.9-3.1-4.5-2.9c-3.5,0.2-7.3,1.8-8.4,3.5c-1.1,1.8,0.9,3.1,4.4,2.9C879.9,2253.2,883.7,2251.6,884.8,2249.8z M859.2,2251.1c1.1-1.7-0.8-3-4.2-2.8c-3.4,0.2-7.2,1.7-8.3,3.5c-1.2,1.7,0.7,3,4.2,2.9C854.3,2254.4,858.1,2252.8,859.2,2251.1z M834.3,2252.3c1.2-1.7-0.6-3-4-2.8c-3.4,0.2-7,1.7-8.2,3.4c-1.2,1.7,0.6,3,3.9,2.8C829.4,2255.6,833.1,2254,834.3,2252.3z M946.7,2252.1c-3.8,0.2-7.8,1.8-8.8,3.7c-1,1.9,1.3,3.2,5.2,3.1c3.9-0.2,7.9-1.8,8.8-3.7C952.9,2253.3,950.5,2251.9,946.7,2252.1z M919.1,2253.4c-3.7,0.2-7.6,1.8-8.7,3.6c-1.1,1.8,1.1,3.2,4.9,3c3.8-0.2,7.7-1.8,8.7-3.7C925.1,2254.6,922.9,2253.2,919.1,2253.4z M892.4,2254.7c-3.6,0.2-7.5,1.8-8.6,3.6c-1.1,1.8,0.9,3.2,4.6,3c3.7-0.2,7.5-1.8,8.6-3.6C898.1,2255.8,896,2254.5,892.4,2254.7z M866.4,2255.9c-3.5,0.2-7.3,1.7-8.5,3.5c-1.1,1.8,0.8,3.1,4.3,3c3.6-0.2,7.4-1.8,8.5-3.6C871.9,2257,869.9,2255.7,866.4,2255.9z M841.1,2257.1c-3.4,0.2-7.2,1.7-8.4,3.5c-1.2,1.8,0.6,3.1,4.1,2.9c3.5-0.2,7.3-1.7,8.4-3.5C846.4,2258.2,844.5,2256.9,841.1,2257.1z M952.6,2241.1c3.8-0.2,7.7-1.8,8.6-3.6c0.9-1.8-1.4-3.1-5.2-2.9c-3.8,0.2-7.6,1.8-8.6,3.6C946.5,2240,948.8,2241.3,952.6,2241.1z M925.3,2242.5c3.7-0.2,7.5-1.8,8.5-3.6c1-1.8-1.2-3-4.9-2.8c-3.7,0.2-7.5,1.8-8.5,3.5C919.5,2241.4,921.6,2242.7,925.3,2242.5z M898.9,2243.9c3.6-0.2,7.4-1.8,8.4-3.5c1-1.7-1-3-4.6-2.8c-3.6,0.2-7.3,1.8-8.4,3.5C893.2,2242.8,895.3,2244.1,898.9,2243.9z M873.1,2245.3c3.5-0.2,7.3-1.7,8.3-3.5c1.1-1.7-0.9-3-4.4-2.8c-3.5,0.2-7.2,1.7-8.3,3.5C867.7,2244.2,869.6,2245.4,873.1,2245.3z M848,2246.6c3.4-0.2,7.1-1.7,8.2-3.4c1.1-1.7-0.8-2.9-4.2-2.7c-3.4,0.2-7,1.7-8.2,3.4C842.8,2245.5,844.6,2246.8,848,2246.6z"/></g></g><g><g><path fill-rule="evenodd" clip-rule="evenodd" fill="#010101" d="M960.6,2241.1c-3.8,0.2-7.7,1.8-8.7,3.7c-1,1.8,1.4,3.2,5.2,3c3.9-0.2,7.8-1.8,8.8-3.7C966.8,2242.2,964.4,2240.9,960.6,2241.1z M933,2242.5c-3.7,0.2-7.6,1.8-8.6,3.6c-1,1.8,1.2,3.1,4.9,3c3.8-0.2,7.7-1.8,8.7-3.6C939.1,2243.6,936.8,2242.3,933,2242.5z M911,2246.7c1-1.8-1.1-3.1-4.7-2.9c-3.6,0.2-7.4,1.8-8.5,3.6c-1.1,1.8,1,3.1,4.7,2.9C906.1,2250.2,910,2248.5,911,2246.7z M884.7,2248.1c1.1-1.8-0.9-3.1-4.5-2.9c-3.5,0.2-7.3,1.8-8.4,3.5c-1.1,1.8,0.9,3.1,4.4,2.9C879.8,2251.4,883.6,2249.8,884.7,2248.1z M859.1,2249.3c1.1-1.7-0.8-3-4.2-2.8c-3.4,0.2-7.2,1.7-8.3,3.5c-1.2,1.7,0.7,3,4.2,2.9C854.2,2252.7,858,2251.1,859.1,2249.3z M834.2,2250.6c1.2-1.7-0.6-3-4-2.8c-3.4,0.2-7,1.7-8.2,3.4c-1.2,1.7,0.6,3,3.9,2.8C829.3,2253.9,833,2252.3,834.2,2250.6z M946.6,2250.4c-3.8,0.2-7.8,1.8-8.8,3.7c-1,1.9,1.3,3.2,5.2,3.1c3.9-0.2,7.9-1.8,8.8-3.7C952.8,2251.6,950.4,2250.2,946.6,2250.4z M919.1,2251.7c-3.7,0.2-7.6,1.8-8.7,3.6c-1.1,1.8,1.1,3.2,4.9,3c3.8-0.2,7.7-1.8,8.7-3.7C925,2252.8,922.8,2251.5,919.1,2251.7z M892.3,2252.9c-3.6,0.2-7.5,1.8-8.6,3.6c-1.1,1.8,0.9,3.2,4.6,3c3.7-0.2,7.5-1.8,8.6-3.6C898.1,2254.1,896,2252.8,892.3,2252.9z M866.3,2254.2c-3.5,0.2-7.3,1.7-8.5,3.5c-1.1,1.8,0.8,3.1,4.3,3c3.6-0.2,7.4-1.8,8.5-3.6C871.8,2255.3,869.9,2254,866.3,2254.2z M841,2255.3c-3.4,0.2-7.2,1.7-8.4,3.5c-1.2,1.8,0.6,3.1,4.1,2.9c3.5-0.2,7.3-1.7,8.4-3.5C846.3,2256.5,844.4,2255.2,841,2255.3z M952.5,2239.4c3.8-0.2,7.7-1.8,8.6-3.6c0.9-1.8-1.4-3.1-5.2-2.9c-3.8,0.2-7.6,1.8-8.6,3.6C946.4,2238.3,948.7,2239.6,952.5,2239.4z M925.3,2240.8c3.7-0.2,7.5-1.8,8.5-3.6c1-1.8-1.2-3-4.9-2.8c-3.7,0.2-7.5,1.8-8.5,3.5C919.4,2239.7,921.6,2241,925.3,2240.8z M898.8,2242.2c3.6-0.2,7.4-1.8,8.4-3.5c1-1.7-1-3-4.6-2.8c-3.6,0.2-7.3,1.8-8.4,3.5C893.1,2241.1,895.2,2242.4,898.8,2242.2z M873,2243.5c3.5-0.2,7.3-1.7,8.3-3.5c1.1-1.7-0.9-3-4.4-2.8c-3.5,0.2-7.2,1.7-8.3,3.5C867.6,2242.5,869.5,2243.7,873,2243.5z M847.9,2244.8c3.4-0.2,7.1-1.7,8.2-3.4c1.1-1.7-0.8-2.9-4.2-2.7c-3.4,0.2-7,1.7-8.2,3.4C842.7,2243.8,844.5,2245,847.9,2244.8z"/></g></g><g><g><linearGradient id="SVGID_2_" gradientUnits="userSpaceOnUse" x1="2199.4014" y1="2202.8223" x2="2341.8486" y2="2202.8223" gradientTransform="matrix(-1 0 0 1 3589.3906 0)"><stop  offset="4.582902e-04" style="stop-color:#818285"/><stop  offset="0.1401" style="stop-color:#231F20"/><stop  offset="0.2649" style="stop-color:#595A5C"/><stop  offset="0.4061" style="stop-color:#231F20"/><stop  offset="0.5809" style="stop-color:#424143"/><stop  offset="0.8784" style="stop-color:#231F20"/><stop  offset="1" style="stop-color:#424143"/></linearGradient><path fill-rule="evenodd" clip-rule="evenodd" fill="url(#SVGID_2_)" d="M1384.4,2190c-3.8,0.7-7.5,2.3-8.4,3.6c-0.8,1.3,1.6,1.9,5.4,1.3c3.8-0.7,7.6-2.3,8.4-3.6C1390.6,2189.9,1388.2,2189.3,1384.4,2190z M1357.2,2194.7c-3.7,0.6-7.4,2.2-8.3,3.5c-0.9,1.3,1.4,1.9,5.1,1.3c3.7-0.6,7.5-2.2,8.3-3.6C1363.2,2194.6,1360.9,2194,1357.2,2194.7z M1330.8,2199.2c-3.6,0.6-7.2,2.2-8.2,3.5c-0.9,1.3,1.2,1.9,4.8,1.3c3.6-0.6,7.3-2.2,8.2-3.5C1336.6,2199.2,1334.4,2198.6,1330.8,2199.2z M1309.7,2204.9c0.9-1.3-1.1-1.9-4.6-1.3c-3.5,0.6-7.1,2.1-8.1,3.5c-1,1.3,1.1,1.9,4.6,1.3C1305.1,2207.8,1308.8,2206.2,1309.7,2204.9z M1284.5,2209.3c1-1.3-1-1.9-4.4-1.3c-3.4,0.6-7,2.1-8,3.4c-1,1.3,0.9,1.9,4.3,1.3C1279.9,2212.1,1283.5,2210.6,1284.5,2209.3z M1259.9,2213.5c1-1.3-0.8-1.9-4.2-1.3c-3.3,0.6-6.8,2.1-7.9,3.4c-1.1,1.3,0.8,1.9,4.1,1.3C1255.3,2216.3,1258.9,2214.8,1259.9,2213.5z M1371.2,2198c-3.8,0.6-7.6,2.3-8.4,3.6c-0.9,1.4,1.5,2,5.3,1.3c3.8-0.6,7.6-2.3,8.5-3.6C1377.4,2197.9,1375,2197.4,1371.2,2198z M1344,2202.6c-3.7,0.6-7.4,2.2-8.3,3.6c-0.9,1.4,1.3,2,5,1.3c3.7-0.6,7.5-2.2,8.4-3.6C1350,2202.6,1347.7,2202,1344,2202.6z M1317.6,2207.1c-3.6,0.6-7.3,2.2-8.2,3.5c-1,1.3,1.2,2,4.8,1.4c3.6-0.6,7.3-2.2,8.3-3.5C1323.4,2207.1,1321.2,2206.5,1317.6,2207.1z M1292,2211.4c-3.5,0.6-7.1,2.1-8.1,3.5c-1,1.3,1,2,4.5,1.4c3.5-0.6,7.2-2.2,8.2-3.5C1297.5,2211.4,1295.5,2210.8,1292,2211.4z M1267,2215.7c-3.4,0.6-7,2.1-8,3.4c-1,1.3,0.9,1.9,4.3,1.4c3.4-0.6,7.1-2.1,8.1-3.5C1272.3,2215.7,1270.4,2215.1,1267,2215.7z M1376.2,2190c3.8-0.7,7.5-2.2,8.3-3.6c0.8-1.3-1.6-1.8-5.3-1.2c-3.7,0.7-7.4,2.2-8.2,3.5C1370.1,2190.1,1372.5,2190.6,1376.2,2190z M1349.4,2194.6c3.7-0.6,7.3-2.2,8.2-3.5c0.9-1.3-1.4-1.8-5.1-1.2c-3.6,0.6-7.3,2.2-8.1,3.5C1343.5,2194.7,1345.7,2195.2,1349.4,2194.6z M1323.3,2199.1c3.6-0.6,7.2-2.2,8.1-3.5c0.9-1.3-1.3-1.8-4.8-1.2c-3.5,0.6-7.1,2.2-8,3.4C1317.6,2199.2,1319.7,2199.8,1323.3,2199.1z M1297.8,2203.5c3.5-0.6,7.1-2.1,8-3.4c0.9-1.3-1.1-1.8-4.5-1.2c-3.4,0.6-7,2.1-8,3.4C1292.4,2203.6,1294.4,2204.1,1297.8,2203.5z M1273.1,2207.8c3.4-0.6,6.9-2.1,7.9-3.4c1-1.3-1-1.8-4.3-1.2c-3.3,0.6-6.9,2.1-7.9,3.4C1267.8,2207.8,1269.7,2208.4,1273.1,2207.8z"/></g></g><g><g><path fill-rule="evenodd" clip-rule="evenodd" fill="#010101" d="M1383.2,2189c-3.8,0.7-7.5,2.3-8.4,3.6c-0.8,1.3,1.6,1.9,5.4,1.3c3.8-0.7,7.6-2.3,8.4-3.6C1389.4,2188.9,1387,2188.4,1383.2,2189z M1356,2193.7c-3.7,0.6-7.4,2.2-8.3,3.5c-0.9,1.3,1.4,1.9,5.1,1.3c3.7-0.6,7.5-2.2,8.3-3.6C1362,2193.6,1359.7,2193.1,1356,2193.7z M1329.6,2198.3c-3.6,0.6-7.2,2.2-8.2,3.5c-0.9,1.3,1.2,1.9,4.8,1.3c3.6-0.6,7.3-2.2,8.2-3.5C1335.4,2198.2,1333.2,2197.6,1329.6,2198.3z M1308.5,2204c0.9-1.3-1.1-1.9-4.6-1.3c-3.5,0.6-7.1,2.1-8.1,3.5c-1,1.3,1.1,1.9,4.6,1.3C1303.9,2206.8,1307.6,2205.3,1308.5,2204z M1283.3,2208.3c1-1.3-1-1.9-4.4-1.3c-3.4,0.6-7,2.1-8,3.4c-1,1.3,0.9,1.9,4.3,1.3C1278.7,2211.1,1282.3,2209.6,1283.3,2208.3z M1258.7,2212.5c1-1.3-0.8-1.9-4.2-1.3c-3.3,0.6-6.8,2.1-7.9,3.4c-1.1,1.3,0.8,1.9,4.1,1.3C1254.1,2215.3,1257.7,2213.8,1258.7,2212.5z M1370,2197.1c-3.8,0.6-7.6,2.3-8.4,3.6c-0.9,1.4,1.5,2,5.3,1.3c3.8-0.6,7.6-2.3,8.5-3.6C1376.2,2197,1373.8,2196.4,1370,2197.1z M1342.8,2201.7c-3.7,0.6-7.4,2.2-8.3,3.6c-0.9,1.4,1.3,2,5,1.3c3.7-0.6,7.5-2.2,8.4-3.6C1348.8,2201.6,1346.5,2201,1342.8,2201.7z M1316.4,2206.1c-3.6,0.6-7.3,2.2-8.2,3.5c-1,1.3,1.2,2,4.8,1.4c3.6-0.6,7.3-2.2,8.3-3.6C1322.2,2206.1,1320,2205.5,1316.4,2206.1z M1290.8,2210.5c-3.5,0.6-7.1,2.1-8.1,3.5c-1,1.3,1,2,4.5,1.4c3.5-0.6,7.2-2.2,8.2-3.5C1296.3,2210.5,1294.3,2209.9,1290.8,2210.5z M1265.8,2214.7c-3.4,0.6-7,2.1-8,3.4c-1,1.3,0.9,1.9,4.3,1.4c3.4-0.6,7.1-2.1,8.1-3.5C1271.1,2214.7,1269.2,2214.1,1265.8,2214.7z M1375,2189c3.8-0.7,7.5-2.2,8.3-3.6c0.8-1.3-1.6-1.8-5.3-1.2c-3.7,0.7-7.4,2.2-8.2,3.5C1368.9,2189.1,1371.3,2189.7,1375,2189z M1348.2,2193.7c3.7-0.6,7.3-2.2,8.2-3.5c0.9-1.3-1.4-1.8-5.1-1.2c-3.6,0.6-7.3,2.2-8.1,3.5C1342.3,2193.7,1344.5,2194.3,1348.2,2193.7z M1322.1,2198.2c3.6-0.6,7.2-2.2,8.1-3.5c0.9-1.3-1.3-1.8-4.8-1.2c-3.5,0.6-7.1,2.2-8,3.4C1316.4,2198.2,1318.5,2198.8,1322.1,2198.2z M1296.6,2202.6c3.5-0.6,7.1-2.1,8-3.4c0.9-1.3-1.1-1.8-4.5-1.2c-3.4,0.6-7,2.1-8,3.4C1291.2,2202.6,1293.2,2203.2,1296.6,2202.6z M1271.9,2206.9c3.4-0.6,6.9-2.1,7.9-3.4c1-1.3-1-1.8-4.3-1.2c-3.3,0.6-6.9,2.1-7.9,3.4C1266.6,2206.9,1268.5,2207.4,1271.9,2206.9z"/></g></g><linearGradient id="SVGID_3_" gradientUnits="userSpaceOnUse" x1="2416.9692" y1="2237.8435" x2="2523.4753" y2="2237.8435" gradientTransform="matrix(-1 0 0 1 3589.3906 0)"><stop  offset="4.582902e-04" style="stop-color:#818285"/><stop  offset="0.1401" style="stop-color:#231F20"/><stop  offset="0.2649" style="stop-color:#595A5C"/><stop  offset="0.4061" style="stop-color:#231F20"/><stop  offset="0.5809" style="stop-color:#424143"/><stop  offset="0.8784" style="stop-color:#231F20"/><stop  offset="1" style="stop-color:#424143"/></linearGradient><path fill-rule="evenodd" clip-rule="evenodd" fill="url(#SVGID_3_)" d="M1170.8,2230.3l-11.2,8.1c-2.1,1.5-7.4,3.2-11.9,3.7l-72.5,8c-6.7,0.7-10.8-0.1-9-2l9.8-10c2-2.1,9.6-4.2,16.5-4.7l76.1-8C1173.3,2225.1,1173.1,2228.6,1170.8,2230.3z"/><path fill-rule="evenodd" clip-rule="evenodd" fill="#030303" d="M1170.2,2228.5l-11.2,8.1c-2.1,1.5-7.4,3.2-11.9,3.7l-72.5,8c-6.7,0.7-10.8-0.1-9-2l9.8-10c2-2.1,9.6-4.2,16.5-4.7l76.1-8C1172.6,2223.3,1172.5,2226.8,1170.2,2228.5z"/><g><g><g><path fill-rule="evenodd" clip-rule="evenodd" fill="#424143" d="M545.7,109.9c-8.8-14.9-24.2-22.7-34.5-17.4c-10.3,5.3-11.5,21.6-2.7,36.5c8.8,14.9,24.2,22.7,34.5,17.4S554.5,124.8,545.7,109.9z"/></g></g><g><g><path fill-rule="evenodd" clip-rule="evenodd" fill="#151314" d="M544.6,107.3c-8.8-14.9-24.2-22.7-34.5-17.4c-10.3,5.3-11.5,21.6-2.7,36.5c8.8,14.9,24.2,22.7,34.5,17.4S553.4,122.2,544.6,107.3z"/></g></g><g><g><path fill-rule="evenodd" clip-rule="evenodd" fill="#424143" d="M535.4,111.9c-7.1-12-18.8-18.1-26-13.8c-7.2,4.3-7.3,17.5-0.2,29.5c7.1,12,18.8,18.1,26,13.8S542.5,123.8,535.4,111.9z M530.5,112.2c0.5-0.3,1.3,0.1,1.8,1c0.5,0.8,0.5,1.8,0,2.1c-0.5,0.3-1.3-0.1-1.8-1C530,113.4,530,112.5,530.5,112.2z M528.7,115.4c0.5,0.8,0.5,1.8,0,2.1c-0.5,0.3-1.3-0.1-1.8-1c-0.5-0.8-0.5-1.8,0-2.1C527.3,114.1,528.2,114.5,528.7,115.4z M525.1,107.3c0.5-0.3,1.3,0.1,1.8,1c0.5,0.8,0.5,1.8,0,2.1c-0.5,0.3-1.3-0.1-1.8-1C524.5,108.5,524.6,107.6,525.1,107.3z M525,117.6c0.5,0.8,0.5,1.8,0,2.1c-0.5,0.3-1.3-0.1-1.8-1c-0.5-0.8-0.5-1.8,0-2.1C523.7,116.3,524.5,116.7,525,117.6z M522.3,109c0.7,0.4,1.3,1.3,1.3,2.1c0,0.8-0.6,1.1-1.3,0.8c-0.7-0.4-1.3-1.3-1.3-2.1C521,109,521.6,108.6,522.3,109z M521.4,115.6c0.5,0.8,0.5,1.8,0,2.1c-0.5,0.3-1.3-0.1-1.8-1c-0.5-0.8-0.5-1.8,0-2.1C520,114.4,520.9,114.8,521.4,115.6z M517.8,103.4c0.5-0.3,1.3,0.1,1.8,1c0.5,0.8,0.5,1.8,0,2.1c-0.5,0.3-1.3-0.1-1.8-1C517.3,104.6,517.3,103.7,517.8,103.4z M515.9,108.6c0.5-0.3,1.3,0.1,1.8,1c0.5,0.8,0.5,1.8,0,2.1c-0.5,0.3-1.3-0.1-1.8-1C515.4,109.8,515.4,108.9,515.9,108.6z M512.3,102.6c0.5-0.3,1.3,0.1,1.8,1c0.5,0.8,0.5,1.8,0,2.1c-0.5,0.3-1.3-0.1-1.8-1C511.8,103.8,511.8,102.9,512.3,102.6z M510.5,107.8c0.5-0.3,1.3,0.1,1.8,1c0.5,0.8,0.5,1.8,0,2.1c-0.5,0.3-1.3-0.1-1.8-1C510,109,510,108.1,510.5,107.8z M510.4,118.1c-0.5-0.8-0.5-1.8,0-2.1c0.5-0.3,1.3,0.1,1.8,1c0.5,0.8,0.5,1.8,0,2.1C511.7,119.3,510.9,118.9,510.4,118.1z M514,126.2c-0.5,0.3-1.3-0.1-1.8-1c-0.5-0.8-0.5-1.8,0-2.1c0.5-0.3,1.3,0.1,1.8,1C514.5,124.9,514.5,125.9,514,126.2z M514.6,116.7c-0.7-0.4-1.3-1.3-1.3-2.1c0-0.8,0.6-1.1,1.3-0.8s1.3,1.3,1.3,2.1C515.9,116.7,515.3,117,514.6,116.7z M515.8,123c-0.5-0.8-0.5-1.8,0-2.1c0.5-0.3,1.3,0.1,1.8,1c0.5,0.8,0.5,1.8,0,2.1C517.2,124.3,516.3,123.9,515.8,123z M519.4,131.1c-0.5,0.3-1.3-0.1-1.8-1c-0.5-0.8-0.5-1.8,0-2.1c0.5-0.3,1.3,0.1,1.8,1C520,129.9,519.9,130.8,519.4,131.1z M519.5,120.8c-0.5-0.8-0.5-1.8,0-2.1c0.5-0.3,1.3,0.1,1.8,1c0.5,0.8,0.5,1.8,0,2.1C520.8,122.1,520,121.7,519.5,120.8z M522.2,129.4c-0.7-0.4-1.3-1.3-1.3-2.1c0-0.8,0.6-1.1,1.3-0.8c0.7,0.4,1.3,1.3,1.3,2.1C523.5,129.4,522.9,129.8,522.2,129.4z M523.1,122.8c-0.5-0.8-0.5-1.8,0-2.1s1.3,0.1,1.8,1c0.5,0.8,0.5,1.8,0,2.1C524.4,124,523.6,123.6,523.1,122.8z M526.7,135c-0.5,0.3-1.3-0.1-1.8-1c-0.5-0.8-0.5-1.8,0-2.1c0.5-0.3,1.3,0.1,1.8,1C527.2,133.8,527.2,134.7,526.7,135z M528.6,129.8c-0.5,0.3-1.3-0.1-1.8-1c-0.5-0.8-0.5-1.8,0-2.1c0.5-0.3,1.3,0.1,1.8,1C529.1,128.5,529.1,129.5,528.6,129.8z M528.7,122.7c0-0.8,0.6-1.1,1.3-0.8c0.7,0.4,1.3,1.3,1.3,2.1c0,0.8-0.6,1.1-1.3,0.8C529.3,124.5,528.7,123.5,528.7,122.7z M532.2,135.8c-0.5,0.3-1.3-0.1-1.8-1c-0.5-0.8-0.5-1.8,0-2.1c0.5-0.3,1.3,0.1,1.8,1C532.7,134.6,532.7,135.5,532.2,135.8z M534,130.6c-0.5,0.3-1.3-0.1-1.8-1c-0.5-0.8-0.5-1.8,0-2.1c0.5-0.3,1.3,0.1,1.8,1C534.5,129.4,534.5,130.3,534,130.6z M534.1,122.4c-0.5,0.3-1.3-0.1-1.8-1c-0.5-0.8-0.5-1.8,0-2.1c0.5-0.3,1.3,0.1,1.8,1C534.6,121.2,534.6,122.1,534.1,122.4z"/></g></g></g><g><g opacity="0.5"><g><g><path fill-rule="evenodd" clip-rule="evenodd" fill="#010101" d="M191,77.3c-5.8-9.8-16-15-22.7-11.5c-6.8,3.5-7.6,14.3-1.8,24.1c5.8,9.8,16,15,22.7,11.5C196,97.9,196.8,87.1,191,77.3z"/></g></g></g><g opacity="0.2"><g><g><radialGradient id="SVGID_4_" cx="3409.0459" cy="68.5661" r="26.5229" gradientTransform="matrix(-1 0 0 1 3589.3906 0)" gradientUnits="userSpaceOnUse"><stop  offset="4.582902e-04" style="stop-color:#F2F2F2"/><stop  offset="1" style="stop-color:#231F20;stop-opacity:0"/></radialGradient><path fill-rule="evenodd" clip-rule="evenodd" fill="url(#SVGID_4_)" d="M188.2,78.7c-4.5-7.6-12.4-11.6-17.6-8.9c-5.3,2.7-5.9,11.1-1.4,18.7c4.5,7.6,12.4,11.6,17.6,8.9C192.1,94.7,192.7,86.3,188.2,78.7z"/></g></g></g><g><g><g><radialGradient id="SVGID_5_" cx="3413.5081" cy="93.602" r="10.9193" gradientTransform="matrix(-1 0 0 1 3589.3906 0)" gradientUnits="userSpaceOnUse"><stop  offset="4.582902e-04" style="stop-color:#F2F2F2"/><stop  offset="1" style="stop-color:#231F20;stop-opacity:0"/></radialGradient><path fill-rule="evenodd" clip-rule="evenodd" fill="url(#SVGID_5_)" d="M185.6,80.1c-3.3-5.5-9-8.4-12.8-6.5c-3.8,2-4.3,8-1,13.6c3.3,5.5,9,8.4,12.8,6.5C188.5,91.7,188.9,85.6,185.6,80.1z"/></g></g></g></g></g><g><g><path fill-rule="evenodd" clip-rule="evenodd" fill="#010101" d="M197.4,747.5l0.2-0.1c6.5-1.8,10.3-8.5,8.5-14.9l-91.6-334.2c-1.8-6.5-8.5-10.3-14.9-8.5l-0.2,0.1c-6.5,1.8-10.3,8.5-8.5,14.9L182.5,739C184.3,745.5,191,749.3,197.4,747.5z"/></g><g><path fill-rule="evenodd" clip-rule="evenodd" fill="#313131" d="M194.2,747.5l0.2-0.1c6.5-1.8,10.3-8.5,8.5-14.9l-91.6-334.2c-1.8-6.5-8.5-10.3-14.9-8.5l-0.2,0.1c-6.5,1.8-10.3,8.5-8.5,14.9L179.3,739C181,745.5,187.7,749.3,194.2,747.5z"/></g></g></g></svg>