<?xml version="1.0" encoding="utf-8"?>
<!-- Generator: Adobe Illustrator 22.0.0, SVG Export Plug-In . SVG Version: 6.00 Build 0)  -->
<svg version="1.1" id="Layer_1" xmlns="http://www.w3.org/2000/svg" xmlns:xlink="http://www.w3.org/1999/xlink" x="0px" y="0px"
	 viewBox="0 0 167 167" style="enable-background:new 0 0 167 167;" xml:space="preserve">
<style type="text/css">
	.st0{clip-path:url(#SVGID_2_);fill:#046CA2;}
	.st1{clip-path:url(#SVGID_4_);fill:#046CA2;}
	.st2{clip-path:url(#SVGID_6_);fill:#046CA2;}
	.st3{clip-path:url(#SVGID_8_);fill:#046CA2;}
</style>
<g>
	<defs>
		<rect id="SVGID_1_" width="167" height="167"/>
	</defs>
	<clipPath id="SVGID_2_">
		<use xlink:href="#SVGID_1_"  style="overflow:visible;"/>
	</clipPath>
	<path class="st0" d="M110.8,95.6c0.6-4.4,0.9-8.7,0.9-13.2c0-4.5-0.5-8.8-0.9-13.2h22.3c1,4.2,1.7,8.7,1.7,13.2
		c0,4.5-0.7,9-1.7,13.2H110.8z M99.2,132.2c3.9-7.3,7-15.2,9.1-23.4h19.4C121.4,119.7,111.3,128,99.2,132.2z M97.5,95.6H66.6
		c-0.6-4.4-1-8.7-1-13.2c0-4.5,0.5-8.9,1-13.2h30.9c0.6,4.3,1,8.7,1,13.2C98.5,86.9,98.1,91.2,97.5,95.6z M82.1,134.9
		c-5.5-7.9-9.8-16.7-12.6-26.1h25.1C91.9,118.2,87.6,126.9,82.1,134.9z M55.9,56H36.5C42.8,45.1,52.9,36.8,65,32.6
		C61,39.9,58,47.8,55.9,56z M36.5,108.8h19.5c2.1,8.2,5.2,16.1,9.1,23.4C52.9,128,42.8,119.7,36.5,108.8z M31,95.6
		c-1-4.2-1.7-8.7-1.7-13.2c0-4.5,0.7-9,1.7-13.2h22.3c-0.6,4.4-0.9,8.7-0.9,13.2c0,4.5,0.5,8.8,0.9,13.2H31z M82.1,29.9
		c5.5,7.9,9.8,16.7,12.6,26.1H69.5C72.3,46.6,76.6,37.9,82.1,29.9z M127.7,56h-19.5c-2.1-8.2-5.2-16.1-9.1-23.4
		C111.3,36.8,121.4,45.1,127.7,56z M82,16.5c-36.4,0-65.8,29.5-65.8,65.9s29.4,65.9,65.8,65.9c36.5,0,66-29.5,66-65.9
		S118.5,16.5,82,16.5z"/>
</g>
</svg>
