<svg version="1.1" id="Layer_1" xmlns="http://www.w3.org/2000/svg" xmlns:xlink="http://www.w3.org/1999/xlink" x="0px" y="0px" viewBox="0 0 1184.6 2360" enable-background="new 0 0 1184.6 2360" xml:space="preserve"><g id="NEXUS_5_FRONT_1_"><path fill-rule="evenodd" clip-rule="evenodd" fill="#424143" d="M7.8,416.5H39c4.3,0,7.8,3.5,7.8,7.8V779c0,4.3-3.5,7.8-7.8,7.8H7.8c-4.3,0-7.8-3.5-7.8-7.8V424.2C0,419.9,3.5,416.5,7.8,416.5z"/><path fill-rule="evenodd" clip-rule="evenodd" fill="#424143" d="M1136.5,357.1h44.2c2.2,0,3.9,1.7,3.9,3.9v143.5c0,2.2-1.7,3.9-3.9,3.9h-44.2V357.1z"/><g><g><path fill-rule="evenodd" clip-rule="evenodd" fill="#030303" d="M11.1,129.1v2100.8c0,0,0.6,14.9,6,31.1c20.7,62.7,103.1,68.8,134.4,73.2c166.2,23.5,436.1,21.7,436.1,21.7c0,0,237.7,9.9,448-21.1c32.3-4.8,122.7-20.6,134.4-73.9c3.6-16.6,5.8-31,5.8-31V129.1c0,0-2.3-30.2-7-43.2c-23.3-65.2-185.2-65-265.8-72.3C774.4,1.9,593.5,2.5,593.5,2.5s-201.1,4-320.2,12.4C100.3,27,37.9,37.4,17.9,85.3C12,99.3,11.1,129.1,11.1,129.1z"/><path opacity="0.2" fill="#FFFFFF" d="M598,12.5c30.5,0,188.4,0.5,304.2,11.1c12.1,1.1,26,2,40.7,3c41.5,2.8,93.1,6.2,135.6,15.7c46.3,10.4,73.5,26.2,81,47c3.4,9.5,5.7,31.9,6.4,40.2v2099.6c-0.5,3.1-2.5,15.7-5.6,29.7c-4.2,19.4-22.2,35.6-53.4,48c-19.8,7.9-43.6,13.8-72.7,18.1c-126.2,18.6-262.2,22.5-354.1,22.5c-50.7,0-85.3-1.2-91.8-1.5c-0.4,0-0.7,0-0.7,0c0,0,0,0-0.1,0c0,0-4.6,0-12.7,0c-63,0-279.7-1.6-422-21.7c-2.3-0.3-4.8-0.7-7.5-1c-17.2-2.2-43.2-5.6-66.9-15.3c-27.4-11.2-44.3-27.6-51.8-50.1c-4.5-13.7-5.4-26.7-5.5-28.2V129.3c0.2-7.9,1.8-30.1,6-40.1C36,68,54.4,55.6,90.7,46.3c39.2-10,99.2-15.6,183.3-21.5c116.5-8.2,314.6-12.2,319.6-12.3C593.9,12.5,595.5,12.5,598,12.5 M598,2.5c-3,0-4.6,0-4.6,0s-201.1,4-320.2,12.4C100.3,27,37.9,37.4,17.9,85.3c-5.9,14-6.7,43.9-6.7,43.9v2100.8c0,0,0.6,14.9,6,31.1c20.7,62.7,103.1,68.8,134.4,73.2c144.7,20.4,368,21.8,423.4,21.8c8.2,0,12.8,0,12.8,0h0c0.2,0,36.2,1.5,92.4,1.5c88.5,0,227.1-3.7,355.6-22.6c32.3-4.8,122.7-20.6,134.4-73.9c3.6-16.6,5.8-31,5.8-31V129.1c0,0-2.3-30.2-7-43.2c-23.3-65.2-185.2-65-265.8-72.3C786.4,3,626.8,2.5,598,2.5L598,2.5z"/></g><path fill="#818285" d="M680.1,2360c-50.9,0-85.8-1.2-92.2-1.5l-0.3,0c-0.9,0-5.4,0-12.7,0c-63.2,0-280.6-1.6-423.7-21.8c-2.2-0.3-4.7-0.6-7.4-1c-35.5-4.6-109.2-14.2-129-73.9c-5.4-16.4-6.1-31.2-6.1-31.8l0-0.1V129.1c0-1.3,1-30.5,6.9-44.8c10.4-24.9,32-39.9,72-50.1C127.7,24,188.3,18.3,273.1,12.4C390.8,4.1,591.4,0,593.4,0c0,0,1.6,0,4.6,0c30.6,0,189,0.5,305.3,11.1c11.9,1.1,25.8,2,40.4,3c87.4,5.9,207,13.9,227.5,71c4.7,13.1,7,42.6,7.1,43.9l0,0.2v2101l0,0.2c0,0.1-2.2,14.7-5.9,31.2c-8.2,37.6-55.4,63.9-136.5,75.8C909.1,2356.1,772.4,2360,680.1,2360z M587.6,2353.5c0,0,0.2,0,0.4,0c6.5,0.2,41.3,1.5,92,1.5c92.2,0,228.6-3.9,355.2-22.6c78.8-11.6,124.6-36.5,132.3-71.9c3.4-15.3,5.5-29,5.8-30.7V129.2c-0.1-1.9-2.5-30.3-6.8-42.5c-8.5-23.7-36.8-40.6-86.4-51.8c-43-9.6-95-13.1-136.7-15.9c-14.7-1-28.6-1.9-40.5-3C786.8,5.5,628.5,5,598,5c-3,0-4.5,0-4.5,0c-2,0-202.4,4.1-320,12.3C97.1,29.7,39.2,40.8,20.2,86.2c-5.6,13.4-6.5,42.7-6.6,43l0,2100.7c0,0.8,0.8,15.1,5.8,30.3c18.8,56.8,90.4,66.1,124.9,70.5c2.7,0.4,5.2,0.7,7.5,1c142.8,20.2,359.9,21.7,423,21.7C583.1,2353.5,587.6,2353.5,587.6,2353.5z"/></g><g><path fill-rule="evenodd" clip-rule="evenodd" fill="#231F20" d="M53.5,220h1080v1920H53.5V220z"/><path fill="#010101" d="M1133.5,220v1920H53.5V220H1133.5 M1133.5,217H53.5c-1.7,0-3,1.3-3,3v1920c0,1.7,1.3,3,3,3h1080c1.7,0,3-1.3,3-3V220C1136.5,218.3,1135.2,217,1133.5,217L1133.5,217z"/></g><g><path opacity="0.2" fill-rule="evenodd" clip-rule="evenodd" fill="#FFFFFF" d="M121.6,123.5c8.4,0,15.2,6.8,15.2,15.2c0,8.4-6.8,15.2-15.2,15.2c-8.4,0-15.2-6.8-15.2-15.2C106.5,130.3,113.2,123.5,121.6,123.5z"/><path fill-rule="evenodd" clip-rule="evenodd" fill="#010101" d="M121.6,122c8.4,0,15.2,6.8,15.2,15.2c0,8.4-6.8,15.2-15.2,15.2c-8.4,0-15.2-6.8-15.2-15.2C106.5,128.8,113.2,122,121.6,122z"/><path fill-rule="evenodd" clip-rule="evenodd" fill="#231F20" d="M121.6,129.6c4.2,0,7.6,3.4,7.6,7.6c0,4.2-3.4,7.6-7.6,7.6c-4.2,0-7.6-3.4-7.6-7.6C114,133,117.4,129.6,121.6,129.6z"/><path fill-rule="evenodd" clip-rule="evenodd" fill="#FFFFFF" d="M121.6,131.4c1.9,0,3.5,0.8,3.5,1.8c0,1-1.6,1.8-3.5,1.8c-1.9,0-3.5-0.8-3.5-1.8C118.1,132.2,119.7,131.4,121.6,131.4z"/></g><g><path opacity="0.2" fill-rule="evenodd" clip-rule="evenodd" fill="#FFFFFF" d="M593.5,104.2c15.5,0,28.1,12.6,28.1,28.1c0,15.5-12.8,28.2-28.1,28.1c-15.5,0-28.1-12.6-28.1-28.1C565.4,116.8,578,104.2,593.5,104.2z"/><path fill-rule="evenodd" clip-rule="evenodd" fill="#0B0C0C" d="M593.5,102.3c15.5,0,28.1,12.6,28.1,28.1c0,15.5-12.6,28.1-28.1,28.1c-15.5,0-28.1-12.6-28.1-28.1C565.4,114.9,578,102.3,593.5,102.3z"/><g opacity="0.2"><g><path fill-rule="evenodd" clip-rule="evenodd" fill="#FFFFFF" d="M574,129.9c-1.1,0-1.9,0.9-1.9,1.9c0,1.1,0.9,1.9,1.9,1.9c1.1,0,1.9-0.9,1.9-1.9C576,130.7,575.1,129.9,574,129.9z M581.8,129.9c-1.1,0-1.9,0.9-1.9,1.9c0,1.1,0.9,1.9,1.9,1.9s1.9-0.9,1.9-1.9C583.8,130.7,582.9,129.9,581.8,129.9z M589.6,129.9c-1.1,0-1.9,0.9-1.9,1.9c0,1.1,0.9,1.9,1.9,1.9c1.1,0,1.9-0.9,1.9-1.9C591.5,130.7,590.7,129.9,589.6,129.9z M597.4,129.9c-1.1,0-1.9,0.9-1.9,1.9c0,1.1,0.9,1.9,1.9,1.9s1.9-0.9,1.9-1.9C599.3,130.7,598.5,129.9,597.4,129.9z M605.2,129.9c-1.1,0-1.9,0.9-1.9,1.9c0,1.1,0.9,1.9,1.9,1.9s1.9-0.9,1.9-1.9C607.1,130.7,606.3,129.9,605.2,129.9z M613,129.9c-1.1,0-1.9,0.9-1.9,1.9c0,1.1,0.9,1.9,1.9,1.9c1.1,0,1.9-0.9,1.9-1.9C614.9,130.7,614,129.9,613,129.9z M593.5,114.3c1.1,0,1.9-0.9,1.9-1.9c0-1.1-0.9-1.9-1.9-1.9s-1.9,0.9-1.9,1.9C591.5,113.4,592.4,114.3,593.5,114.3z M593.5,122.1c1.1,0,1.9-0.9,1.9-1.9c0-1.1-0.9-1.9-1.9-1.9s-1.9,0.9-1.9,1.9C591.5,121.2,592.4,122.1,593.5,122.1z M593.5,129.9c1.1,0,1.9-0.9,1.9-1.9c0-1.1-0.9-1.9-1.9-1.9s-1.9,0.9-1.9,1.9C591.5,129,592.4,129.9,593.5,129.9z M593.5,133.8c-1.1,0-1.9,0.9-1.9,1.9c0,1.1,0.9,1.9,1.9,1.9s1.9-0.9,1.9-1.9C595.4,134.6,594.6,133.8,593.5,133.8z M593.5,141.5c-1.1,0-1.9,0.9-1.9,1.9c0,1.1,0.9,1.9,1.9,1.9s1.9-0.9,1.9-1.9C595.4,142.4,594.6,141.5,593.5,141.5z M593.5,149.3c-1.1,0-1.9,0.9-1.9,1.9s0.9,1.9,1.9,1.9s1.9-0.9,1.9-1.9S594.6,149.3,593.5,149.3z M586.6,124.9c0.8-0.8,0.8-2,0-2.8c-0.8-0.8-2-0.8-2.8,0c-0.8,0.8-0.8,2,0,2.8C584.6,125.7,585.8,125.7,586.6,124.9z M600.4,138.7c-0.8,0.8-0.8,2,0,2.8c0.8,0.8,2,0.8,2.8,0c0.8-0.8,0.8-2,0-2.8C602.4,137.9,601.1,137.9,600.4,138.7z M586.6,141.6c0.8-0.8,0.8-2,0-2.8c-0.8-0.8-2-0.8-2.8,0c-0.8,0.8-0.8,2,0,2.8C584.6,142.3,585.8,142.3,586.6,141.6z M600.4,122.3c-0.8,0.8-0.8,2,0,2.8c0.8,0.8,2,0.8,2.8,0c0.8-0.8,0.8-2,0-2.8C602.4,121.5,601.1,121.5,600.4,122.3z M601.3,145.4c-1.1,0-1.9,0.9-1.9,1.9s0.9,1.9,1.9,1.9c1.1,0,1.9-0.9,1.9-1.9S602.4,145.4,601.3,145.4z M609.1,137.7c-1.1,0-1.9,0.9-1.9,1.9c0,1.1,0.9,1.9,1.9,1.9c1.1,0,1.9-0.9,1.9-1.9C611,138.5,610.2,137.7,609.1,137.7z M609.1,126c1.1,0,1.9-0.9,1.9-1.9c0-1.1-0.9-1.9-1.9-1.9c-1.1,0-1.9,0.9-1.9,1.9C607.1,125.1,608,126,609.1,126z M601.3,118.2c1.1,0,1.9-0.9,1.9-1.9c0-1.1-0.9-1.9-1.9-1.9c-1.1,0-1.9,0.9-1.9,1.9C599.3,117.3,600.2,118.2,601.3,118.2z M585.7,118.2c1.1,0,1.9-0.9,1.9-1.9c0-1.1-0.9-1.9-1.9-1.9c-1.1,0-1.9,0.9-1.9,1.9C583.8,117.3,584.6,118.2,585.7,118.2z M577.9,126c1.1,0,1.9-0.9,1.9-1.9c0-1.1-0.9-1.9-1.9-1.9c-1.1,0-1.9,0.9-1.9,1.9C576,125.1,576.8,126,577.9,126z M577.9,137.7c-1.1,0-1.9,0.9-1.9,1.9c0,1.1,0.9,1.9,1.9,1.9c1.1,0,1.9-0.9,1.9-1.9C579.9,138.5,579,137.7,577.9,137.7z M585.7,145.4c-1.1,0-1.9,0.9-1.9,1.9s0.9,1.9,1.9,1.9c1.1,0,1.9-0.9,1.9-1.9S586.8,145.4,585.7,145.4z"/></g></g><g><g><path fill-rule="evenodd" clip-rule="evenodd" fill="#010101" d="M574,128.5c-1.1,0-1.9,0.9-1.9,1.9c0,1.1,0.9,1.9,1.9,1.9c1.1,0,1.9-0.9,1.9-1.9C576,129.3,575.1,128.5,574,128.5z M581.8,128.5c-1.1,0-1.9,0.9-1.9,1.9c0,1.1,0.9,1.9,1.9,1.9s1.9-0.9,1.9-1.9C583.8,129.3,582.9,128.5,581.8,128.5z M589.6,128.5c-1.1,0-1.9,0.9-1.9,1.9c0,1.1,0.9,1.9,1.9,1.9c1.1,0,1.9-0.9,1.9-1.9C591.5,129.3,590.7,128.5,589.6,128.5z M597.4,128.5c-1.1,0-1.9,0.9-1.9,1.9c0,1.1,0.9,1.9,1.9,1.9s1.9-0.9,1.9-1.9C599.3,129.3,598.5,128.5,597.4,128.5z M605.2,128.5c-1.1,0-1.9,0.9-1.9,1.9c0,1.1,0.9,1.9,1.9,1.9s1.9-0.9,1.9-1.9C607.1,129.3,606.3,128.5,605.2,128.5z M613,128.5c-1.1,0-1.9,0.9-1.9,1.9c0,1.1,0.9,1.9,1.9,1.9c1.1,0,1.9-0.9,1.9-1.9C614.9,129.3,614,128.5,613,128.5z M593.5,112.9c1.1,0,1.9-0.9,1.9-1.9c0-1.1-0.9-1.9-1.9-1.9s-1.9,0.9-1.9,1.9C591.5,112,592.4,112.9,593.5,112.9z M593.5,120.7c1.1,0,1.9-0.9,1.9-1.9c0-1.1-0.9-1.9-1.9-1.9s-1.9,0.9-1.9,1.9C591.5,119.8,592.4,120.7,593.5,120.7z M593.5,128.5c1.1,0,1.9-0.9,1.9-1.9s-0.9-1.9-1.9-1.9s-1.9,0.9-1.9,1.9S592.4,128.5,593.5,128.5z M593.5,132.4c-1.1,0-1.9,0.9-1.9,1.9c0,1.1,0.9,1.9,1.9,1.9s1.9-0.9,1.9-1.9C595.4,133.2,594.6,132.4,593.5,132.4z M593.5,140.2c-1.1,0-1.9,0.9-1.9,1.9s0.9,1.9,1.9,1.9s1.9-0.9,1.9-1.9S594.6,140.2,593.5,140.2z M593.5,148c-1.1,0-1.9,0.9-1.9,1.9c0,1.1,0.9,1.9,1.9,1.9s1.9-0.9,1.9-1.9C595.4,148.8,594.6,148,593.5,148z M586.6,123.5c0.8-0.8,0.8-2,0-2.8c-0.8-0.8-2-0.8-2.8,0c-0.8,0.8-0.8,2,0,2.8C584.6,124.3,585.8,124.3,586.6,123.5z M600.4,137.3c-0.8,0.8-0.8,2,0,2.8c0.8,0.8,2,0.8,2.8,0c0.8-0.8,0.8-2,0-2.8C602.4,136.6,601.1,136.6,600.4,137.3z M586.6,140.2c0.8-0.8,0.8-2,0-2.8c-0.8-0.8-2-0.8-2.8,0c-0.8,0.8-0.8,2,0,2.8C584.6,141,585.8,141,586.6,140.2z M600.4,120.9c-0.8,0.8-0.8,2,0,2.8c0.8,0.8,2,0.8,2.8,0c0.8-0.8,0.8-2,0-2.8C602.4,120.1,601.1,120.1,600.4,120.9z M601.3,144.1c-1.1,0-1.9,0.9-1.9,1.9s0.9,1.9,1.9,1.9c1.1,0,1.9-0.9,1.9-1.9S602.4,144.1,601.3,144.1z M609.1,136.3c-1.1,0-1.9,0.9-1.9,1.9c0,1.1,0.9,1.9,1.9,1.9c1.1,0,1.9-0.9,1.9-1.9C611,137.1,610.2,136.3,609.1,136.3z M609.1,124.6c1.1,0,1.9-0.9,1.9-1.9s-0.9-1.9-1.9-1.9c-1.1,0-1.9,0.9-1.9,1.9S608,124.6,609.1,124.6z M601.3,116.8c1.1,0,1.9-0.9,1.9-1.9c0-1.1-0.9-1.9-1.9-1.9c-1.1,0-1.9,0.9-1.9,1.9C599.3,115.9,600.2,116.8,601.3,116.8z M585.7,116.8c1.1,0,1.9-0.9,1.9-1.9c0-1.1-0.9-1.9-1.9-1.9c-1.1,0-1.9,0.9-1.9,1.9C583.8,115.9,584.6,116.8,585.7,116.8z M577.9,124.6c1.1,0,1.9-0.9,1.9-1.9s-0.9-1.9-1.9-1.9c-1.1,0-1.9,0.9-1.9,1.9S576.8,124.6,577.9,124.6z M577.9,136.3c-1.1,0-1.9,0.9-1.9,1.9c0,1.1,0.9,1.9,1.9,1.9c1.1,0,1.9-0.9,1.9-1.9C579.9,137.1,579,136.3,577.9,136.3z M585.7,144.1c-1.1,0-1.9,0.9-1.9,1.9s0.9,1.9,1.9,1.9c1.1,0,1.9-0.9,1.9-1.9S586.8,144.1,585.7,144.1z"/></g></g></g></g></svg>