<svg xmlns="http://www.w3.org/2000/svg" viewBox="14306.756 -3990.654 119.787 120.678">
  <defs>
    <style>
      .cls-1 {
        fill: #0588cb;
      }
    </style>
  </defs>
  <path id="Path_289" data-name="Path 289" class="cls-1" d="M-14083.524,3069.679h-93.165a13.155,13.155,0,0,1-9.318-4,13.2,13.2,0,0,1-3.994-9.333V2973c0-2.96,1-5.552,3.329-8.667l9.316-11.333a9.526,9.526,0,0,1,7.986-4h79.856a9.515,9.515,0,0,1,7.984,4l7.987,11.333c2.332,3.116,3.327,5.708,3.327,8.667v83.342a13.2,13.2,0,0,1-3.992,9.333A13.155,13.155,0,0,1-14083.524,3069.679Zm-47.775-37.732a7.192,7.192,0,0,0-5.336,2.21,7.335,7.335,0,0,0-2.163,5.3,7.45,7.45,0,0,0,2.163,5.391,7.2,7.2,0,0,0,5.336,2.208,7.276,7.276,0,0,0,5.383-2.253,7.419,7.419,0,0,0,2.205-5.346,7.265,7.265,0,0,0-2.205-5.3A7.345,7.345,0,0,0-14131.3,3031.947Zm1.589-38.887a7.753,7.753,0,0,1,4.982,1.458,5.1,5.1,0,0,1,1.81,4.2,5.222,5.222,0,0,1-1.278,3.622,22.019,22.019,0,0,1-4.1,3.27,38.871,38.871,0,0,0-4.544,3.537,13.912,13.912,0,0,0-3.087,4.506,16.732,16.732,0,0,0-1.279,6.895v3.093h11.556v-2.652a7.652,7.652,0,0,1,1.72-5.169,27.073,27.073,0,0,1,5.252-4.375,56.326,56.326,0,0,0,4.673-3.58,12.769,12.769,0,0,0,3-4.11,14.193,14.193,0,0,0,1.236-6.186,13.187,13.187,0,0,0-2.116-7.2,14.758,14.758,0,0,0-6.354-5.3,24.015,24.015,0,0,0-10.23-1.99,25.791,25.791,0,0,0-11.293,2.386,27.431,27.431,0,0,0-8.821,6.895l8.117,6.274C-14137.312,2994.933-14133.691,2993.06-14129.711,2993.06Zm-40.989-37.393-5.989,6.668h91.833l-5.99-6.668Z" transform="translate(28496.759 -6939.656)"/>
</svg>
