<svg id="Layer_1" data-name="Layer 1" xmlns="http://www.w3.org/2000/svg" viewBox="0 0 932.25 932.25"><title>YouFinger</title><circle cx="466.12" cy="466.12" r="466.12" style="fill:#8ed8f8"/><path d="M656.33,762.49c-14.61,16.41-26.91,18.83-50,9.83-33.73-13.18-49.19-48.38-36.53-83.54,2-5.69,4.81-11.13,7.27-16.73-16.86,3.87-24.36,10.2-27.73,26-5.43,25.38-17.29,46.1-39.84,60a18.18,18.18,0,0,0-4.87,4.73c-19.62,26.67-41.82,33.59-72.44,20.5-13.84-5.92-26.89-14.08-39.45-22.49-32.86-22-65.69-44.14-97.71-67.35-35.27-25.57-67.39-54.45-76.43-99.92a81.05,81.05,0,0,1,1.16-35.94c4.56-16.7,3.57-32.07-1.77-48-8.09-24.12-10.79-48.44,2.18-71.83a82.38,82.38,0,0,1,15.23-19.8c8.47-8,12.13-16.71,11.39-28.37a164.3,164.3,0,0,1,.83-33.09c5.61-40,32.14-62.21,67.09-76.77,7.36-3.06,15-5.5,22.35-8.52,15.54-6.37,28.57-15.94,37.64-30.37.81-1.29,1.76-2.5,2.48-3.84,15.78-29.16,40.8-37.61,73-38.42,38.23-1,73.36,11.73,109.93,17.77,10.43,1.72,21.17,3.73,30.74,7.93,10.24,4.5,22.17,9.66,28.29,18.18,16.89,23.53,41.68,37.79,61.56,57.51,16.89,16.76,31,36.28,46.59,54.4,7.83,9.12,15.25,18.88,24.39,26.5C769,395.15,778.44,411.62,781,435c2.61,24.13,10.79,47.95,18.75,71.14,7.49,21.85,17.73,42.77,27,64,12.77,29.18-3.86,71.25-32,85.62-24.34,12.45-47.53,27.23-70.87,41.56-18.25,11.2-34.12,25.08-46,43.35-3.85,5.93-9.82,10.5-14.82,15.69,5.49-8.07,10.42-16.61,16.61-24.11,10.27-12.47,16.25-24.73,3.45-39-.39-.44,0-1.54,0-2.92,2.78,3.11,5,5.66,7.32,8.17,2.15,2.35,4.35,4.65,6.68,7.13,7.09-12.71,6.4-20.56-1.92-26.78s-19.39-5.13-27.83,3.23c-9.73,9.65-19,19.71-28.48,29.65C626.19,725,625.75,739,639,757.06l-4.9-17ZM461.06,739.87c30.38-8.24,47.59-25.63,50.38-49.43l-20.25,21.72-1.34-1.3,13.49-23.44-3-3.68c-11.93,20.37-34.77,17.19-53.49,29.73l26.86-27.35-2-1.87-28.17,21.5-1-1.34,22.62-24.58-2.11-2-25.8,20.85c20.94-24.25,21.74-26,13.26-31.27L431.7,682.69c3.1-9.85,17.1-14.52,9.74-28.33l-18.13,14.45c2.71-9.44,14.82-13.7,9.14-24.82l-18.32,12.91c4.07-7.73,13.2-12.26,10.26-23.72l-16.83,10.49c2.34-4.75,5.75-7.91,8.23-11.67,1.15-1.74.5-4.66.66-7-2-.06-4.16-.59-6-.09-5,1.34-9.93,3.11-17.83,5.67l16.67-15.34-1.43-2.38L383.29,615l18.22-10.54-.56-2.28-23.31,2L393,595.38l-.42-2.55L369.75,594l16.84-8.66c-1.67-1.44-2.54-2.83-3.39-2.82-5.41.07-10.81.46-17.78.82l13.22-8-.57-3.14-22.68,1.62,16.46-8.37-.86-3.09h-20.6l13.29-7.85-.49-3.07H345.11l-2.58-2.9,13.67-6.77-2.67-3.2-10.47-1.31L351.34,527l-25.72-5.59,16.77-3.18.82-3.73L314,503.81h21.14l1.11-2.63-29.31-15.24.55-1.67,27.54,7-5.67-32.1,7.65.71,7.18,25.6,5.66-6.39-3,17.14,12.67-11.82-5.17,16.23,13.58-6.79-6.71,12.76,15.93-2.87-8.67,11,14.25.71-11,8.31L392.49,525l-14.32,9.77,22,1.57-17,6,20.94,4.11-.38,1.81-9.08,2.3,0,1.84,19.11,3.72-13.92,4.48.31,1.76,17,2.09-.18,1.89L401.83,571l21.42,2.9-.27,1.63L408.77,580l18.11,4-.38,2.75H408.34l-.25,3.35,28.06,4.4-17.43,1.41-.2,2.71,25.18,2.08-15.56,3,.43,2.53,20.36.95-.08.89-16.64,2.58.31,3H454.9l-.1,1.08-16.27,3.37.43,2.59h20.86l0,1.21-9.62,1.48.09,1.93h22.32l.06,2.37-25.86,2.82,0,2.4h35.46l.32,2.94-22,5.84.87,3.55L508,634.39l.78,1.44-38.93,15.75.8,2.37,39.49-12.62c-.64.65-2.24,3.49-4.61,4.48-11.07,4.63-22.35,8.74-35.64,13.84l22.75-2.53.49,1.38-9.69,5.31c24.23,1.08,33.11-21.48,51.53-27.87l-37.56,34.79A33.56,33.56,0,0,0,510,665c15.51-11.71,29.71-25.64,46.47-35.06,23.29-13.08,30.16-41.4,19.73-67.82v32.11h-1.36l-1.7-32.74-2.54.12-1.37,26.26-2.12-.07v-18l-8.69,25.06-1.86-.61,7-30.58-2.91-.73-4.87,11.23L558.18,551l-1.58-.18-6,17.11-.86-.32,4.19-30.91-2.17-.23-1.39,4.62-1.76-.34V523.14L542,547l-1.31-.42,3.79-25.49-1.52-.18-5.65,14,2.88-28.74-1.91-.36L530.64,534l-1.52-.41,4.44-29.49-2-.27-4.34,15v-39h-1l-6.39,33.64-1.35-.44,2.09-38.61-2.54-.11-5.29,30-1.45-.39V471.79l-8,30.5-1.65-.48,3.93-31.68-2.86-.3-8.15,28.09-1.52-.47,3.77-24-1.94-.27-4.3,8.66-1.27-.53,1.14-11c-10.52,5.79-51.41-2.68-63.28-15.84-17-18.81-26.56-41.16-31.25-66.44l-13.66,5.26-.45-1,10.48-8.49-14.12,4.63-.8-1.59,19.26-14.76-.57-1.24-15.6,5.24L392,363.59l-2-3-20.66,9.7-.69-1.19,16.81-15.19-1.28-1.95-19,8.37-.75-1.06,17.15-14.89-17,5-.69-1.24,17.71-12.3L361,338.64l17.53-9.86-.62-1.88H365.26l-.06-1.41L376,321.14l-12.5-4.76,14.94-1.5-14.19-10.31,13.84,2.29-5.92-27.24,6.75,3c5.07-28.57,15.93-49.2,28.8-56.25-1.84,5.6-7.14,13.05-5.41,18.1,5,14.59-5.23,23.79-9.1,35.21-.33,1,0,2.16.15,4.31l9.88-11.28,1.24,1-8.84,17.44.91.37,19.7-21.63c-9.71,28-28.28,53.1-14.9,85.17l4.16-10.14,1.31.44v20.79l7.85-13.83-1.16,20.21c23.52-53.13,53.9-78.08,85.63-73.37l14.8,25c-4.25,1.8-8.29,4.05-12.62,5.22-7.52,2-15.94,1.93-22.65,5.34-8.35,4.25-15.34,11.17-22.92,16.94a5.11,5.11,0,0,0-.93.66q-12.19,15-24.35,30l2.65,2,16.73-15.76c-14.54,16.4-25,33.84-24.61,55.57l19.29-39.79,2.22,1.06-14.12,34.16,3,1.3C442,399,455,382.1,473.65,369.52l-24.76,29,2.37,2.07L464.49,389l.68,1.18L447.54,415l1.93,1.27,6.92-4.22.93,1.24L450,424l1.08,1,18.48-13.6,1.84,2-16.55,17.1,23.29-13.9.83,1.28-18.82,15.36,1.12,1.42,26.28-14,1.06,2-23,14.94.69,1.28,19.54-6.59.66,1.65-11.17,6.52.69,1.77,22-6.93.4,1.32-15.58,8.12.68,1.37,26.26-8.63.41,1.11-10.88,6.53.54,1.28,11.21-2.19.43,1.24L504,449.95l.58,1.56,20.28-5.69c-3.34,2.49-4.51,3.4-5.72,4.26s-2.21,1.48-3.32,2.21c25.76-9.46,48.82-21.76,53.13-52.91l-6.53,3.56c-.69-2.28-1-4.79-2.19-6.77-.86-1.43-2.88-2.15-3.18-2.36L562.51,373l-16.14,2.74L562,367l-20.24-1.3,9.89-4.31-.54-1.61-14.59-1,.08-1.24,12.94-1,.15-1.93-23.06-3.62,17.2-1.29.11-1.63-22.85-4,36.64-3L543,328.26l1.32-1.48,19.07,14.16c-8.93-20.23-24-31.26-41.94-39.3l1.84-2.76,47,22.83,1.66-3.15c-14.07-16.66-22.5-40-51-40l8.8-9.6c-12.07-.71-21.17-1.76-30.25-1.63-9.37.13-18.72,1.42-28.07,2.2,23.26-8.36,46.72-8.59,73.5-1.16-18.23-13-36.07-14.78-54-17.18l38.33,2c-10-5.28-20.31-9-30.95-10.44-10.31-1.36-20.95-.29-31.44-.29l0-1.72h57.86l.71-1.59-45-12.19v-.76l27.28,2.07.2-3.77-50-2.95-.3-1.27,45.86-2.67.2-2.23L452.8,212.9l22.62-6.12c-17.51-1.91-35.28-3.29-52.66-1.27-7.59.88-16.65,7.18-21.09,13.7-12.56,18.47-22.67,38.59-34.58,57.54-6,9.53-13.76,17.94-20.85,26.76-.39.48-1.91.06-3.38.06l6.3-7.47-4.24-1.49,18.81-22.54-2.38-3.4c-22.06,9.71-45.29,17.43-65.89,29.59-32.66,19.28-48.18,56.79-40.12,90.67l.95-20c1.89,4.61,3.89,7.09,3.68,9.36-1.56,17.13-3.56,34.23-5.42,51.33l-1.37.44L248,411.88c-7.4,10.17-14.45,18.26-19.71,27.39-15.27,26.53-5.62,53.23,22.47,64,13.19,5.07,24,19.69,24.49,33.31l-9.39-14.78-1.69.76,2,15.87-11.35-21.84-2.34,8.54-9.82-12.64c7.82,20.86,6.18,26.74-8.57,43.6-4.75,5.42-7.59,13.83-8.35,21.17-1.86,18.09,3.06,33.23,23.34,38.46.38.1.54,1.09,1,2l-14-2.14L234.55,618,258,645.81l-1.66-12.2,16.26,22.28v-8.8l13.26,20.69,1.47-.77-1.61-9.41,1.21-.39,10,20.5.9-10.05,9.07,18.44,3.22-4.71,8,12.73,3.18-6.06c4.77,11.39,4.77,11.39,9.81,6.42,1.87,3.37,2.92,8.48,5.61,9.57,12.34,5,22.43,13.58,33.28,20.7,17.21,11.29,32.62,25.33,49.84,36.6,5.32,3.48,13.23,9.45,21.28,2.46,3.24-2.81,7.07-4.94,10.63-7.38l-3.52-4.14-15.77,8.13,7.61-10.89-1.39-1.16L430.39,753l1.24-9.8-17.07,6.76,9.38-10.18-1.51-3-17.87,7.87,10.21-12.38-2.31-2.76L399,737.31l6-14.74-3.17-1.47-8.11,5.34L395,709.7l-7.51,7.11L385.76,702l-8.27,7.2V693.5l-9.41,7,5.49-16.67-16.93,7.42,8.73-12.72L363.55,676l-16.4,4.68-2.4-3,11.89-7.22-1.42-1.81L337.63,673l12.51-9.45-.61-2-17.85,1.37,14.81-8.76H322.93L336.78,648l-.42-1.82L316.8,645l11.69-4.92-.48-1.51h-17.3l12.18-5.28-.34-1.6H305.49l11.43-6.07-.8-2-15,1,8.92-6.68H296.43l9-6.83H289.11l9.42-5-13-2.73.18-1.18,10.68-.63.69-2.06-33.31-16.8.55-1.39,15,3-9.15-11.16,1.22-1L289.46,585l-4.54-19.23L298,584.28l-.62-9.78,1.29-.32,7.23,17,5-12,1.56,20.86,5.95-13.76,2.91,27.57,2.24-.32,2.6-21,1,.31,2,26.24,4.37-7.93,10.18,25.13,5.3-4.28,1.06,12.74,2.88-5.92,3.62,10.55,2.53-4.88c2.11,2.63,4.5,5.08,6.26,7.92,1.94,3.12,3,6.8,5,9.88,3.82,5.89,6.85,13.48,12.36,16.79,8.49,5.1,13.56,12.44,19.13,19.79l4.83-1.92-1.21,9.49c10-7.52,7.27.89,7.67,4.76l9.76-1.45-1.71,8.59,12.18-3.84-3.12,11.3,12.69-5.2-2.92,10.7,13.52-5.53-5.27,11.66,23.18-10.4ZM755.8,499.58c20.35.92,27.46,22.23,46.77,29.74-13.72-19.57-27.1-36-37.5-54.22-10.52-18.39-18.07-38.47-26.93-57.81l1.89-1.07,36.05,65.94,3.82-1.37-16-57.6-2.62.36,10.32,8.19c-4-22.48-13.36-38.18-29.91-50.5-11-8.19-22.31-15.95-33.28-24.16-2.15-1.61-4.69-4.34-4.85-6.7-.89-13.11-4.57-24.64-14.87-33.6-9.9-8.6-19.47-17.59-29.18-26.4l-.68,1.35,16.91,28.8-1.69,1.05-17.25-22.33L654.76,301l.49,5.62c-7.89-13.1-14.91-24.42-21.6-35.93-21-36.1-51.57-52.18-95.09-45.07,18.64,27.95,39.37,54.36,43,88.88,8.43-23.59-2.14-43.5-11.11-63.7,16.34,23,26.34,47.15,15,75.68-1.61,4-.22,9.27-.22,14.44l10.29-2.46-7.58,10.78,6.27,2.2L587,360l7,2.71-7.23,9.15,10.09-1.48-11.48,10.18,1,1.61,8.74-1.86.51,1.38-14.72,9.7,1.18,2.09,14.17-4.07c-5.16,9.13-21.93,7.26-18.83,23.39l18.93-6.19.79,1.62-19.38,16.08L600,422.9l-12.4,8.9,7.63,1.77-8.87,7.72.79,1,10.6-4.53.54,1.13-18.06,14.88.74,1.35,19.24-9,.77,1.63-10.21,8.43.57,1.22,17.78-6,2.29,2.59-8.1,4.34.85.71,10.74-3.76-3.26,6.9,8.05-2.34-4.08,7c11-1.93,18.52-8.13,18.26-14-.53-11.88-2.64-24-1-35.61,2.94-20.78-4.6-38.47-12.09-57.13l-9.26,54-2.86-.48c.26-2.19.49-4.39.78-6.58,4-29.89,8.36-59.8-6.25-88.39-.61-1.2-1.34-3.52-.84-3.94,8.48-7.25,3.17-15,.62-22.28-2.82-8-6.78-15.62-10.24-23.4,10.82,15.14,21.67,29.27,19,50.51-1.5,12,6.13,25.2,9.64,37.86l3.49-.59,2.31-12.33,17.66,78.73,3.38.33c1.31-3.51,3.54-7,3.75-10.56.47-8.36,1-16.94-.37-25.13-2-12.42,4.82-20.88,11.23-30l-6.24,23.64L668,372.49,659.75,391l2,1.21,13.53-8.29.57,1.07-14.46,16.78,1.87,1.69,14.08-5.33.76,1.79-11.62,9.53,1.58,2.4h11.7l-17.34,13.09,1.49,2.49,20.87-1.76L661,436.87l1.28,3.28h25.62L659.45,449l.75,2.49h20c-4.08,2.22-8.58,2.72-12.66,4.29s-7.57,4.16-11.33,6.31l1.21,2,19.39-2C653.9,472,653.9,472,651.13,480.2l18.68-4.9-22,17,1.82,2.32,19.07-7.9-24.42,20.42L646,509l29.48-20.08.85,1.51-21.44,17.92,1.46,1.69,12.28-4.8-16.32,15.55,34.41-3.27-34.94,17.22,1.39,3.14L668,532.91l-11,9.37c18.93-3.12,36-6.27,52.74,1.75-20.43-2.49-40.8-5-60.56,11.53,36.83-4.83,36.83-4.83,45.87,0-23.83-2.08-40.59,2.78-48.11,13.68l28.83-6.39.38,1.59-29.48,12,.87,1.81,27.34-1.44-36.18,10.85.79,3.1,27.68-2.63.19,1.32-30.58,8.16.48,2.12h18.6l-27,8.06.84,2h20.18l-27.41,8.08.67,2.71h14.5c-3.32,2.4-7,3.2-10.39,4.49-3.28,1.23-6.37,3-9.55,4.48l1,1.93,8.8.91c-4.65,3-10.49,6.59-16,10.63-.24.18,2.41,4.31,3.12,5.55l-19.33,8.89.78,1.87,15.14-2.72-19.84,11.64.89,1.44,12.22-3.77c-18.56,14-21.38,18.83-20.5,37.62l6.36-8.72-2.77,17.37,1.46.44,6.51-12.91c.39,4.17-.77,7.7-1.49,11.31s-.95,7.11-1.41,10.78l10.26-22,2.06,1.12-6.4,23.53c2.31-.16,2.7-1,3.11-1.75a3.06,3.06,0,0,1,.56-1c.15-.13.55,0,.84.09l-2.55,1.34,22.08,42.22,2.52-1.42-9-34.75,2.39-.61,6.25,18.57,1.59-.45V692l6.56,8.26,1.43-10.35,3.38,7.94L639,687.4l5.35,5.59,1.35-10.8,3.1,1.4,4.54-10.3,2.05,8.64L659.71,668l2.67,6.09,4.38-11.37,2.4,6.06,4.16-10.29,2.85,4.45,3.12-7.49,10.24,1.4,19,32.41,1.5-14.45,5.47,15.63,20.09-30.6,1.37.55-6.59,16.08,3.06,2.24L755.82,655l-5,9.56,45.1-24.15-9.38-11.6c5.53,1.55,9.1,3.43,12.61,3.33,4.66-.14,11.72-.43,13.28-3.18,2-3.44.93-10.58-1.61-14.11-3.62-5-9.78-8.24-16.89-13.83l24.56,7.24,1.29-4.34-24.93-12.5.23-1.32,27.71,7.1,1.57-4.61L790.7,580l.14-1.21,29.64,4.4.75-2.46L786.3,570.19l.13-1.24,30.09,2.7.55-2.2-41.63-10.3H802.9l.64-1.68-28.86-9.65.14-1.05,24.67,2.32.74-1.87L771.09,535.3l19.5,2.42.65-1.82L773.73,527l10.47-.89ZM587,541l-1.71.45,2.65,20.79-1.36.23-8-23.61c-.34,7.88,1.75,15,3.53,22.22,8.14,33.06,2.58,60.19-28.59,75.73-13.21,6.59-24,18-35.91,27.24l.89,1.39,36.23-17,.95,1.15-17.24,15.63c21.4-7.84,34.31-25.35,49.52-40.64L572,649.1c18.56-13.31,28.79-31.61,34.41-53.16l-1.85,19.94,2.27.41,5.36-26.92,1.43,12.38,2.36-.07v-26.2l5.33,8.11c2.37-9.31,4.94-17,6.18-25,1-6.68,3.14-15.26.11-20-3.93-6.15-12.51-9.34-19.08-13.81l-1.77,2.5,12,14.21L595,525.38l-1.34,1.88,5.88,10.17-15.2-10.58,8.43,19.89-1.52.59Zm42-10.42c-2.06-3.56-4.57-8.45-7.61-13-2.3-3.42-8.24-7.94-7.53-9.28,6.36-11.93-4.69-17-9.16-24-6.58-10.4-31.52-15.41-42.88-9.83l17,2-.26,1.6-13.2,1,.13,1.13,16.25,3.93-16.37,2.59,21,5.73-.46,1.7-15,.85,21.52,7-16.57,4.79,25.52,6.36-11.62,3.79ZM501,317c-5-9.75-12.45-8.93-20-7-30.36,7.57-43.7,30-50.18,58.47C448.86,344.52,470.82,326,501,317ZM472.86,748.36c6.71-3.35,11.19-5.07,15.11-7.65,8.47-5.55,16.39-12,25-17.26,11.92-7.33,16.62-19,12.48-28.16ZM229,512.45l2.44,37c7.45-3.8,14.15-9,12.33-18C242.18,523.6,240.33,514.12,229,512.45ZM449.23,775.34c14.63,1.09,25.32-4.74,31.62-18L466.43,766l3.38-7.47-1.37-.84Zm-11.58-4.87,2.71,3.7L461,758.86l-3.45-4.54Z" transform="translate(-55.04 -27.91)" style="fill:#0d88ca"/><path d="M656.33,762.49l-22.28-22.42,4.9,17c-13.21-18-12.77-32-.08-45.37,9.44-9.94,18.75-20,28.48-29.65,8.44-8.36,19.59-9.38,27.83-3.23s9,14.07,1.92,26.78c-2.33-2.48-4.53-4.78-6.68-7.13-2.29-2.51-4.54-5.06-7.32-8.17,0,1.38-.34,2.48,0,2.92,12.8,14.28,6.82,26.54-3.45,39-6.18,7.51-11.11,16-16.61,24.11Z" transform="translate(-55.04 -27.91)" style="fill:#fff"/><path d="M461.06,739.87l10.51-12.81-23.18,10.4,5.27-11.66-13.52,5.53,2.92-10.7-12.69,5.2,3.12-11.3-12.18,3.84,1.71-8.59-9.76,1.45c-.4-3.87,2.34-12.28-7.67-4.76l1.21-9.49L402,698.88c-5.57-7.34-10.64-14.68-19.13-19.78-5.51-3.31-8.54-10.91-12.36-16.79-2-3.08-3-6.76-5-9.88-1.76-2.84-4.14-5.29-6.26-7.92l-2.53,4.88-3.62-10.55-2.88,5.92L349.14,632l-5.3,4.28-10.18-25.13-4.37,7.93-2-26.24-1-.31-2.6,21-2.24.32-2.91-27.57-5.95,13.76L311,579.21l-5,12-7.23-17-1.29.32.62,9.78-13.11-18.47L289.46,585,271.35,572.2l-1.22,1,9.15,11.16-15-3-.55,1.39L297,599.49l-.69,2.06-10.68.63-.18,1.18,13,2.73-9.42,5h16.27l-9,6.83h13.65l-8.92,6.68,15-1,.8,2-11.43,6.07h17.08l.34,1.6-12.18,5.28H328l.48,1.51L316.8,645l19.55,1.13.42,1.82-13.84,6.21h23.56l-14.81,8.76,17.85-1.37.61,2L337.63,673l17.58-4.35,1.42,1.81-11.89,7.22,2.4,3,16.4-4.68,1.82,2.51-8.73,12.72,16.93-7.42-5.49,16.67,9.41-7v15.71l8.27-7.2,1.75,14.81L395,709.7l-1.29,16.75,8.11-5.34,3.17,1.47-6,14.74,13.47-7.88,2.31,2.76-10.21,12.38,17.87-7.87,1.51,3-9.38,10.18,17.07-6.76-1.24,9.8,8.29-4.64,1.39,1.16-7.61,10.89,15.77-8.13,3.52,4.14c-3.56,2.44-7.4,4.56-10.63,7.38-8,7-16,1-21.28-2.46C402.63,750,387.22,736,370,724.72,359.17,717.6,349.08,709,336.74,704c-2.69-1.09-3.74-6.21-5.61-9.57-5,5-5,5-9.81-6.42l-3.18,6.06-8-12.73-3.22,4.71-9.07-18.44-.9,10.05-10-20.5-1.21.39,1.61,9.41-1.47.77-13.26-20.69v8.8L256.3,633.6l1.66,12.2L234.55,618l1.51-2.32,14,2.14c-.43-.94-.58-1.93-1-2-20.28-5.24-25.2-20.38-23.34-38.46.75-7.34,3.6-15.74,8.35-21.17,14.75-16.86,16.39-22.74,8.57-43.6l9.82,12.64,2.34-8.54,11.35,21.84-2-15.87,1.69-.76,9.39,14.78C274.75,523,264,508.37,250.76,503.3c-28.09-10.8-37.74-37.5-22.47-64,5.25-9.13,12.31-17.22,19.71-27.39L253.18,430l1.37-.44c1.86-17.11,3.86-34.2,5.42-51.33.21-2.27-1.79-4.74-3.68-9.36l-.95,20c-8.05-33.88,7.47-71.39,40.12-90.67,20.61-12.16,43.84-19.88,65.89-29.59l2.38,3.4-18.81,22.54,4.24,1.49-6.3,7.47c1.47,0,3,.42,3.38-.06,7.09-8.82,14.86-17.23,20.85-26.76,11.91-18.95,22-39.06,34.58-57.54,4.44-6.53,13.5-12.82,21.09-13.7,17.38-2,35.16-.64,52.66,1.27L452.8,212.9l50.73,2.54-.2,2.23-45.86,2.67.3,1.27,50,2.95-.2,3.77-27.28-2.07V227l45,12.19-.71,1.59H466.77l0,1.72c10.49,0,21.13-1.06,31.44.29,10.64,1.4,21,5.16,30.95,10.44l-38.33-2c18,2.4,35.8,4.17,54,17.18-26.77-7.43-50.23-7.21-73.5,1.16,9.36-.78,18.71-2.07,28.07-2.2,9.08-.13,18.18.92,30.25,1.63l-8.8,9.6c28.53,0,37,23.32,51,40l-1.66,3.15-47-22.83-1.84,2.76c18,8,33,19.07,41.94,39.3l-19.07-14.16L543,328.26,557.7,341l-36.64,3,22.85,4-.11,1.63-17.2,1.29,23.06,3.62-.15,1.93-12.94,1-.08,1.24,14.59,1,.54,1.61-9.89,4.31L562,367l-15.62,8.75L562.51,373l-5.45,20.83c.3.21,2.33.93,3.18,2.36,1.19,2,1.5,4.49,2.19,6.77l6.53-3.56c-4.31,31.15-27.37,43.46-53.13,52.91,1.11-.74,2.24-1.45,3.32-2.21s2.38-1.77,5.72-4.26l-20.28,5.69-.58-1.56,7.48-4.41-.43-1.24-11.21,2.19-.54-1.28,10.88-6.53-.41-1.11-26.26,8.63-.68-1.37,15.58-8.12-.4-1.32-22,6.93-.69-1.77L486.51,434l-.66-1.65L466.31,439l-.69-1.28,23-14.94-1.06-2-26.28,14-1.12-1.42,18.82-15.36-.83-1.28-23.29,13.9,16.55-17.1-1.84-2L451,425.06,450,424l7.34-10.69-.93-1.24-6.92,4.22L447.54,415l17.64-24.83-.68-1.18-13.24,11.61-2.37-2.07,24.76-29C455,382.1,442,399,435.7,420.83l-3-1.3,14.12-34.16-2.22-1.06L425.26,424.1c-.43-21.73,10.07-39.17,24.61-55.57l-16.73,15.76-2.65-2q12.17-15,24.35-30a5.11,5.11,0,0,1,.93-.66c7.58-5.76,14.57-12.68,22.92-16.94,6.71-3.42,15.14-3.33,22.65-5.34,4.33-1.16,8.36-3.42,12.62-5.22l-14.8-25c-31.74-4.7-62.11,20.25-85.63,73.37l1.16-20.21-7.85,13.83V345.37l-1.31-.44-4.16,10.14C388,323,406.55,297.89,416.26,269.9l-19.7,21.63-.91-.37,8.84-17.44-1.24-1L393.38,284c-.1-2.15-.47-3.35-.15-4.31,3.87-11.42,14.11-20.62,9.1-35.21-1.73-5,3.57-12.5,5.41-18.1-12.86,7-23.73,27.68-28.8,56.25l-6.75-3,5.92,27.24-13.84-2.29,14.19,10.31-14.94,1.5,12.5,4.76-10.81,4.36.06,1.41H377.9l.62,1.88L361,338.64l20.67-2.8-17.71,12.3.69,1.24,17-5-17.15,14.89.75,1.06,19-8.37,1.28,1.95L368.7,369.06l.69,1.19,20.66-9.7,2,3-11.53,12.48,15.6-5.24.57,1.24L377.4,386.84l.8,1.59,14.12-4.63-10.48,8.49.45,1L395.95,388c4.69,25.28,14.28,47.63,31.25,66.44,11.87,13.16,52.76,21.63,63.28,15.84l-1.14,11,1.27.53,4.3-8.66,1.94.27-3.77,24,1.52.47,8.15-28.09,2.86.3-3.93,31.68,1.65.48,8-30.5V503.9l1.45.39,5.29-30,2.54.11L518.55,513l1.35.44,6.39-33.64h1v39l4.34-15,2,.27-4.44,29.49,1.52.41,7.64-28.23,1.91.36-2.88,28.74,5.65-14,1.52.18-3.79,25.49L542,547l6.62-23.86v17.61l1.76.34,1.39-4.62,2.17.23-4.19,30.91.86.32,6-17.11,1.58.18-2.45,23.14,4.87-11.23,2.91.73-7,30.58,1.86.61,8.69-25.06v18l2.12.07,1.37-26.26,2.54-.12,1.7,32.74h1.36V562.08c10.42,26.42,3.56,54.74-19.73,67.82-16.76,9.41-31,23.35-46.47,35.06a33.56,33.56,0,0,1-12.57,5.79L535,636c-18.42,6.39-27.3,29-51.53,27.87l9.69-5.31-.49-1.38-22.75,2.53c13.29-5.1,24.57-9.21,35.64-13.84,2.37-1,4-3.84,4.61-4.48l-39.49,12.62-.8-2.37,38.93-15.75-.78-1.44L461.5,645.27l-.87-3.55,22-5.84-.32-2.94H446.85l0-2.4,25.86-2.82-.06-2.37H450.3l-.09-1.93,9.62-1.48,0-1.21H439l-.43-2.59,16.27-3.37.1-1.08H432.5l-.31-3,16.64-2.58.08-.89-20.36-.95-.43-2.53,15.56-3-25.18-2.08.2-2.71,17.43-1.41-28.06-4.4.25-3.35H426.5l.38-2.75-18.11-4L423,575.55l.27-1.63L401.83,571l15.11-4.67.18-1.89-17-2.09-.31-1.76,13.92-4.48-19.11-3.72,0-1.84,9.08-2.3.38-1.81-20.94-4.11,17-6-22-1.57L392.49,525l-20.77-1.22,11-8.31-14.25-.71,8.67-11-15.93,2.87,6.71-12.76-13.58,6.79,5.17-16.23-12.67,11.82,3-17.14-5.66,6.39L337,459.88l-7.65-.71,5.67,32.1-27.54-7-.55,1.67,29.31,15.24-1.11,2.63H314l29.26,10.73-.82,3.73-16.77,3.18L351.34,527l-8.28,10.23,10.47,1.31,2.67,3.2-13.67,6.77,2.58,2.9h18.07l.49,3.07-13.29,7.85H371l.86,3.09-16.46,8.37,22.68-1.62.57,3.14-13.22,8c7-.36,12.37-.75,17.78-.82.85,0,1.73,1.38,3.39,2.82L369.75,594l22.85-1.18.42,2.55-15.37,8.77,23.31-2,.56,2.28L383.29,615l24.55-2.19,1.43,2.38-16.67,15.34c7.89-2.55,12.8-4.33,17.83-5.67,1.87-.5,4,0,6,.09-.16,2.38.48,5.3-.66,7-2.49,3.77-5.89,6.92-8.23,11.67l16.83-10.49c2.94,11.46-6.19,16-10.26,23.72L432.46,644c5.67,11.12-6.44,15.38-9.14,24.82l18.13-14.45c7.36,13.8-6.65,18.48-9.74,28.33l18.82-15.21c8.48,5.29,7.69,7-13.26,31.27l25.8-20.85,2.11,2-22.62,24.58,1,1.34,28.17-21.5,2,1.87-26.86,27.35c18.72-12.55,41.56-9.36,53.49-29.73l3,3.68-13.49,23.44,1.34,1.3,20.25-21.72C508.65,714.24,491.44,731.63,461.06,739.87ZM279.46,419.11c-8,15.93,7.4,23.68,9.57,35.55l2.65-5.82,4.25,11.6,2-5.31,4.48,10.5,4.7-5.91c1.32,2.24,2.41,4.2,3.63,6.07.23.35,1,.36,1.88.66C309,445.33,292,434.23,279.46,419.11Zm-10.48-42c7.54,10.95,14.91,20.77,21.28,31.2,5.12,8.39,8.58,17.78,13.64,26.21,2.83,4.72,7.43,8.39,11.23,12.53C299.79,423.54,303,387.34,269,377.07ZM423.06,330.4c17.53-28.63,44-39.56,72.41-47.52C464.37,281.89,428.75,304.52,423.06,330.4ZM265.48,392.21c-3.24,15-13.14,30.86,0,43.62Z" transform="translate(-55.04 -27.91)" style="fill:#fff"/><path d="M755.8,499.58l28.4,26.56-10.47.89,17.51,8.87-.65,1.82-19.5-2.42,29.14,11.91-.74,1.87-24.67-2.32-.14,1.05,28.86,9.65-.64,1.68H775.43l41.63,10.3-.55,2.2-30.09-2.7-.13,1.24,34.92,10.52-.75,2.46-29.64-4.4L790.7,580l33.66,12.61-1.57,4.61-27.71-7.1-.23,1.32,24.93,12.5-1.29,4.34L793.93,601c7.11,5.59,13.27,8.79,16.89,13.83,2.54,3.53,3.57,10.67,1.61,14.11-1.57,2.76-8.63,3-13.28,3.18-3.51.1-7.08-1.77-12.61-3.33l9.38,11.6-45.1,24.15,5-9.56-22.37,23.69-3.06-2.24L737,660.37l-1.37-.55-20.09,30.6L710,674.79l-1.5,14.45-19-32.41-10.24-1.4-3.12,7.49-2.85-4.45-4.16,10.29-2.4-6.06-4.38,11.37L659.71,668l-4.33,13.92-2.05-8.64-4.54,10.3-3.1-1.4L644.34,693,639,687.4l-1.29,10.47-3.38-7.94-1.43,10.35L626.32,692v54.66l-1.59.45-6.25-18.57-2.39.61,9,34.75-2.52,1.42-22.08-42.22,2.55-1.34c-.29,0-.69-.21-.84-.09a3.06,3.06,0,0,0-.56,1c-.4.8-.8,1.6-3.11,1.75l6.4-23.53-2.06-1.12-10.26,22c.46-3.67.71-7.27,1.41-10.78s1.88-7.14,1.49-11.31L589,712.58l-1.46-.44,2.77-17.37-6.36,8.72c-.87-18.78,1.94-23.63,20.5-37.62l-12.22,3.77-.89-1.44,19.84-11.64L596,659.29l-.78-1.87,19.33-8.89c-.71-1.24-3.36-5.37-3.12-5.55,5.52-4,11.35-7.66,16-10.63l-8.8-.91-1-1.93c3.17-1.51,6.27-3.25,9.55-4.48,3.44-1.29,7.07-2.09,10.39-4.49h-14.5l-.67-2.71,27.41-8.08H629.69l-.84-2,27-8.06h-18.6l-.48-2.12,30.58-8.16-.19-1.32-27.68,2.63-.79-3.1,36.18-10.85-27.34,1.44-.87-1.81,29.48-12-.38-1.59-28.83,6.39c7.52-10.9,24.28-15.76,48.11-13.68-9-4.8-9-4.8-45.87,0,19.77-16.56,40.13-14,60.56-11.53-16.71-8-33.81-4.87-52.74-1.75l11-9.37-14.86,4.95-1.39-3.14,34.94-17.22-34.41,3.27L668.6,505.2,656.32,510l-1.46-1.69,21.44-17.92-.85-1.51L646,509l-1.71-1.82,24.42-20.42-19.07,7.9-1.82-2.32,22-17-18.68,4.9c2.78-8.19,2.78-8.19,25.71-18.09l-19.39,2-1.21-2c3.76-2.15,7.34-4.77,11.33-6.31s8.58-2.08,12.66-4.29h-20l-.75-2.49,28.49-8.85H662.33L661,436.87l23.7-11.2-20.87,1.76-1.49-2.49,17.34-13.09H668l-1.58-2.4,11.62-9.53-.76-1.79-14.08,5.33-1.87-1.69L675.82,385l-.57-1.07-13.53,8.29-2-1.21,8.29-18.5-11.39,9.12L662.88,358c-6.4,9.08-13.28,17.54-11.23,30,1.35,8.19.84,16.77.37,25.13-.2,3.58-2.44,7-3.75,10.56l-3.38-.33-17.66-78.73-2.31,12.33-3.49.59c-3.52-12.66-11.15-25.83-9.64-37.86,2.65-21.24-8.2-35.37-19-50.51,3.46,7.78,7.42,15.39,10.24,23.4,2.55,7.24,7.86,15-.62,22.28-.5.43.23,2.74.84,3.94,14.62,28.59,10.28,58.49,6.25,88.39-.29,2.19-.52,4.38-.78,6.58l2.86.48,9.26-54c7.49,18.66,15,36.35,12.09,57.13-1.64,11.59.47,23.72,1,35.61.26,5.87-7.31,12.07-18.26,14l4.08-7-8.05,2.34,3.26-6.9L604.2,459.1l-.85-.71,8.1-4.34-2.29-2.59-17.78,6-.57-1.22L601,447.8l-.77-1.63-19.24,9-.74-1.35,18.06-14.88-.54-1.13-10.6,4.53-.79-1,8.87-7.72-7.63-1.77,12.4-8.9-22.32,1.43,19.38-16.08-.79-1.62-18.93,6.19c-3.1-16.13,13.67-14.26,18.83-23.39L582,393.49l-1.18-2.09,14.72-9.7-.51-1.38-8.74,1.86-1-1.61,11.48-10.18-10.09,1.48,7.23-9.15L587,360l7.2-8.54-6.27-2.2,7.58-10.78L585.23,341c0-5.17-1.39-10.4.22-14.44,11.37-28.53,1.37-52.65-15-75.68,9,20.2,19.54,40.11,11.11,63.7-3.66-34.51-24.39-60.93-43-88.88,43.53-7.11,74.13,9,95.09,45.07,6.68,11.51,13.71,22.83,21.6,35.93l-.49-5.62,2.09-1.81,17.25,22.33,1.69-1.05-16.91-28.8.68-1.35c9.71,8.82,19.28,17.8,29.18,26.4,10.3,9,14,20.49,14.87,33.6.16,2.36,2.7,5.09,4.85,6.7,11,8.21,22.28,16,33.28,24.16,16.55,12.32,25.91,28,29.91,50.5l-10.32-8.19,2.62-.36,16,57.6-3.82,1.37L740,416.22l-1.89,1.07c8.85,19.34,16.41,39.42,26.93,57.81,10.39,18.18,23.78,34.65,37.5,54.22C783.25,521.81,776.15,500.5,755.8,499.58ZM635.68,366.18c3.15-33.44,9.3-67.49-18.44-94.74C638.92,299.9,632.59,334,635.68,366.18ZM746,589.13c5.91,7.52,12.56,15,18.09,23.28,5.69,8.5,10.29,17.72,15.37,26.63l2.73-1.79C771.54,620,769.34,596.47,746,589.13Zm53.44,35.54,2.88-3.21L779,600.53l-2.65,2.95Z" transform="translate(-55.04 -27.91)" style="fill:#fff"/><path d="M587,541l4.25,6.34,1.52-.59-8.43-19.89,15.2,10.58-5.88-10.17,1.34-1.88,23.73,16.13-12-14.21,1.77-2.5c6.58,4.46,15.15,7.65,19.08,13.81,3,4.75.94,13.33-.11,20-1.24,7.93-3.81,15.66-6.18,25l-5.33-8.11v26.2l-2.36.07-1.43-12.38-5.36,26.92-2.27-.41,1.85-19.94c-5.62,21.55-15.85,39.85-34.41,53.16l16-24.51c-15.21,15.29-28.12,32.8-49.52,40.64l17.24-15.63-.95-1.15-36.23,17-.89-1.39c11.9-9.23,22.7-20.65,35.91-27.24,31.16-15.54,36.73-42.67,28.59-75.73-1.77-7.21-3.87-14.34-3.53-22.22l8,23.61,1.36-.23-2.65-20.79Z" transform="translate(-55.04 -27.91)" style="fill:#fff"/><path d="M629,530.57,589.7,516.93l11.62-3.79-25.52-6.36L592.38,502l-21.52-7,15-.85.46-1.7-21-5.73,16.37-2.59-16.25-3.93-.13-1.13,13.2-1,.26-1.6-17-2c11.36-5.58,36.3-.57,42.88,9.83,4.47,7.06,15.52,12.12,9.16,24-.72,1.34,5.23,5.86,7.53,9.28C624.42,522.12,626.93,527,629,530.57Z" transform="translate(-55.04 -27.91)" style="fill:#fff"/><path d="M501,317c-30.17,9.07-52.13,27.56-70.21,51.43,6.48-28.5,19.82-50.9,50.18-58.47C488.55,308,496,307.2,501,317Z" transform="translate(-55.04 -27.91)" style="fill:#fff"/><path d="M472.86,748.36l52.6-53.07c4.14,9.13-.56,20.84-12.48,28.16-8.62,5.3-16.54,11.7-25,17.26C484.06,743.29,479.58,745,472.86,748.36Z" transform="translate(-55.04 -27.91)" style="fill:#fff"/><path d="M229,512.45c11.35,1.67,13.2,11.15,14.77,19,1.82,9-4.88,14.21-12.33,18Z" transform="translate(-55.04 -27.91)" style="fill:#fff"/><path d="M449.23,775.34l19.21-17.63,1.37.84L466.43,766l14.42-8.63C474.55,770.6,463.86,776.43,449.23,775.34Z" transform="translate(-55.04 -27.91)" style="fill:#fff"/><path d="M437.65,770.47l19.9-16.16,3.45,4.54-20.63,15.32Z" transform="translate(-55.04 -27.91)" style="fill:#fff"/><path d="M279.46,419.11c12.52,15.12,29.5,26.22,33.18,47.33-.9-.3-1.65-.31-1.88-.66-1.22-1.87-2.31-3.83-3.63-6.07l-4.7,5.91L298,455.13l-2,5.31-4.25-11.6L289,454.66C286.87,442.78,271.48,435,279.46,419.11Z" transform="translate(-55.04 -27.91)" style="fill:#8ed8f8"/><path d="M269,377.07c34,10.27,30.8,46.47,46.15,69.95-3.8-4.14-8.39-7.81-11.23-12.53-5.06-8.43-8.52-17.83-13.64-26.21C283.89,397.84,276.52,388,269,377.07Z" transform="translate(-55.04 -27.91)" style="fill:#8ed8f8"/><path d="M423.06,330.4c5.69-25.88,41.31-48.51,72.41-47.52C467.08,290.84,440.59,301.77,423.06,330.4Z" transform="translate(-55.04 -27.91)" style="fill:#8ed8f8"/><path d="M265.48,392.21v43.62C252.34,423.07,262.24,407.22,265.48,392.21Z" transform="translate(-55.04 -27.91)" style="fill:#8ed8f8"/><path d="M635.68,366.18c-3.09-32.19,3.24-66.28-18.44-94.74C645,298.69,638.83,332.73,635.68,366.18Z" transform="translate(-55.04 -27.91)" style="fill:#8ed8f8"/><path d="M746,589.13c23.29,7.34,25.5,30.9,36.19,48.12L779.51,639c-5.08-8.91-9.68-18.13-15.37-26.63C758.61,604.16,752,596.65,746,589.13Z" transform="translate(-55.04 -27.91)" style="fill:#8ed8f8"/><path d="M799.49,624.68l-23.18-21.2,2.65-2.95,23.42,20.94Z" transform="translate(-55.04 -27.91)" style="fill:#8ed8f8"/></svg>